<?xml version="1.0" encoding="UTF-8"?>
<svg version="1.1" xmlns="http://www.w3.org/2000/svg" width="204" height="192">
<path d="M0 0 C7.520501 3.18175042 11.81335524 8.77651244 16.1875 15.4375 C16.57728027 16.02684326 16.96706055 16.61618652 17.36865234 17.22338867 C19.6737789 20.90183672 21.08384692 24.01194324 21.25 28.375 C18.85605097 31.83292637 16.74743496 34.04337669 13.25 36.375 C11.64015037 41.19645918 12.87298631 44.25690034 14.83203125 48.75 C19.59294763 57.56359727 27.19597456 63.91992252 36.640625 67.20703125 C39.10153148 67.72181271 40.78801521 67.90421168 43.25 67.375 C45.28338782 65.76611904 46.87217716 64.00323815 48.57421875 62.05078125 C50.25 60.375 50.25 60.375 53.6875 59.1875 C63.12730857 59.68433203 71.30944874 67.45037074 78.25 73.375 C80.38483966 75.83793081 81.16471947 76.9059571 81.75 80.125 C80.82414005 86.14308968 77.61023207 90.6447075 72.75 94.25 C67.93613444 97.31431012 64.48402026 98.9262232 58.609375 97.9765625 C29.93272911 90.66496736 5.13268022 66.87256088 -9.68457031 42.22167969 C-18.85694074 26.32346476 -18.85694074 26.32346476 -19 18.5625 C-19.02578125 17.73105469 -19.0515625 16.89960937 -19.078125 16.04296875 C-18.48861587 11.24969805 -16.83534412 8.24930499 -13.078125 5.22265625 C-4.92133792 0.49213379 -4.92133792 0.49213379 0 0 Z " fill="#F5F5F5" transform="translate(70.75,51.625)"/>
<path d="M0 0 C12.72859228 -0.9374577 23.21331926 1.81783163 33.015625 10.20703125 C33.67046875 10.79871094 34.3253125 11.39039063 35 12 C35.92039062 12.74830078 35.92039062 12.74830078 36.859375 13.51171875 C43.06310432 18.9605695 48.67871591 28.72545842 50 37 C50.09199024 39.0400188 50.13001741 41.08291437 50.125 43.125 C50.12886719 44.70667969 50.12886719 44.70667969 50.1328125 46.3203125 C50 49 50 49 49 51 C47.35 51 45.7 51 44 51 C43.87882812 50.443125 43.75765625 49.88625 43.6328125 49.3125 C43.28033769 47.70738392 42.92323783 46.10327925 42.5625 44.5 C42.22073388 42.98103948 41.88557047 41.46054649 41.5625 39.9375 C39.32153062 30.01320705 34.88029562 19.61048858 26 14 C18.72021671 10.21232328 11.75630322 8.34511222 3.6171875 7.45703125 C1 7 1 7 -1 5 C-0.625 2.375 -0.625 2.375 0 0 Z " fill="#E5E5E5" transform="translate(101,50)"/>
<path d="M0 0 C10.93275933 0.80807352 17.94434717 3.48139069 26 11 C31.86118368 18.36834519 33.43880228 25.78515212 33 35 C30 36 30 36 27.91015625 35.41796875 C25.19126626 33.39965164 25.09145265 31.59048905 24.4375 28.3125 C24.19 27.23484375 23.9425 26.1571875 23.6875 25.046875 C23.460625 24.04140625 23.23375 23.0359375 23 22 C22.15970461 18.34996689 21.14740317 15.7931859 17.9375 13.57421875 C12.85429996 10.88171123 7.57045901 9.08563125 2.03125 7.578125 C0 7 0 7 -2 6 C-1.125 1.125 -1.125 1.125 0 0 Z " fill="#E4E4E4" transform="translate(106,61)"/>
<path d="M0 0 C6.05378187 0.02745479 10.13180903 0.90243603 14.55078125 5.1875 C16.9412034 8.17713848 18.42286538 11.2018303 19 15 C18.1875 18 18.1875 18 17 20 C14.6875 20 14.6875 20 12 19 C11.17578125 17.2578125 11.17578125 17.2578125 10.5 15.125 C9.40173757 11.65454112 9.40173757 11.65454112 6.6875 9.1875 C5.800625 8.795625 4.91375 8.40375 4 8 C2.906875 7.443125 1.81375 6.88625 0.6875 6.3125 C-0.6428125 5.6628125 -0.6428125 5.6628125 -2 5 C-1.34 3.35 -0.68 1.7 0 0 Z " fill="#E1E1E1" transform="translate(109,73)"/>
<path d="M0 0 C0.33 0.66 0.66 1.32 1 2 C0.24203125 2.37125 0.24203125 2.37125 -0.53125 2.75 C-3.01758697 4.32862665 -4.37971572 5.50663021 -6 8 C-6.63331235 13.39645982 -6.40461336 18.59231034 -6 24 C-9.00898922 20.99101078 -9.17474562 18.27005036 -9.25 14.1875 C-9.1850106 9.72922713 -8.70031898 6.69043593 -6 3 C-2.8125 1.125 -2.8125 1.125 0 0 Z " fill="#C1C1C1" transform="translate(61,56)"/>
</svg>
