<?xml version="1.0" encoding="UTF-8"?>
<svg version="1.1" xmlns="http://www.w3.org/2000/svg" width="148" height="148">
<path d="M0 0 C2.75329021 1.79562405 4.52627461 3.05254922 6 6 C6 16.23 6 26.46 6 37 C42.3 37 78.6 37 116 37 C116 26.77 116 16.54 116 6 C120 1 120 1 122 0 C126.18144011 -0.39447548 128.30946048 -0.45035186 131.875 1.875 C134.75289915 4.75289915 135.12607517 6.24404482 135.17700195 10.18676758 C135.19625481 11.48370293 135.19625481 11.48370293 135.21589661 12.80683899 C135.22328354 13.74327744 135.23067047 14.67971588 135.23828125 15.64453125 C135.246353 16.60646896 135.25442474 17.56840668 135.26274109 18.55949402 C135.2765861 20.59799393 135.28730638 22.63651706 135.29516602 24.67504883 C135.31237389 27.78967336 135.35625577 30.90323518 135.40039062 34.01757812 C135.41051791 35.99738802 135.4190339 37.97720695 135.42578125 39.95703125 C135.44328934 40.887397 135.46079742 41.81776276 135.47883606 42.77632141 C135.46454163 47.04710723 135.39386696 49.36513035 133.09838867 53.06518555 C129.83516377 56.07403457 127.98074022 56.12847698 123.63005066 56.14717102 C121.92027794 56.15790398 121.92027794 56.15790398 120.17596436 56.16885376 C118.91930969 56.17154266 117.66265503 56.17423157 116.36791992 56.17700195 C114.38980064 56.18685875 114.38980064 56.18685875 112.37171936 56.19691467 C108.7476568 56.21432977 105.12360743 56.2248778 101.49951339 56.2331202 C99.23573499 56.23826927 96.9719607 56.24434504 94.7081852 56.25063133 C87.6265923 56.26968482 80.54500985 56.28391563 73.46339625 56.2922433 C65.28654094 56.30201744 57.1099562 56.32834066 48.93319625 56.36874419 C42.61465638 56.39889527 36.29619412 56.4137112 29.97758371 56.41702431 C26.20298885 56.41937597 22.42868301 56.42835081 18.65416527 56.45348549 C15.10248513 56.47675396 11.55128454 56.48100478 7.99954796 56.47072411 C6.0765307 56.46999212 4.15353786 56.48909209 2.23062134 56.50878906 C0.50815941 56.49837334 0.50815941 56.49837334 -1.24909973 56.48774719 C-2.2448039 56.49013555 -3.24050806 56.4925239 -4.26638508 56.49498463 C-7.76432528 55.86160111 -9.45014808 54.42421176 -12 52 C-13.14714353 49.70571295 -13.14403474 48.3655359 -13.17700195 45.81323242 C-13.18983719 44.94860886 -13.20267242 44.08398529 -13.21589661 43.19316101 C-13.22328354 42.25672256 -13.23067047 41.32028412 -13.23828125 40.35546875 C-13.246353 39.39353104 -13.25442474 38.43159332 -13.26274109 37.44050598 C-13.2765861 35.40200607 -13.28730638 33.36348294 -13.29516602 31.32495117 C-13.31237389 28.21032664 -13.35625577 25.09676482 -13.40039062 21.98242188 C-13.41051791 20.00261198 -13.4190339 18.02279305 -13.42578125 16.04296875 C-13.44328934 15.112603 -13.46079742 14.18223724 -13.47883606 13.22367859 C-13.46454163 8.95289277 -13.39386696 6.63486965 -11.09838867 2.93481445 C-7.46731869 -0.41320528 -4.89295808 -0.41465746 0 0 Z " fill="#F7F8F7" transform="translate(13,92)"/>
<path d="M0 0 C0.680625 -0.00515625 1.36125 -0.0103125 2.0625 -0.015625 C4 0.25 4 0.25 7 2.25 C7 2.91 7 3.57 7 4.25 C7.66 4.25 8.32 4.25 9 4.25 C9 4.91 9 5.57 9 6.25 C9.66 6.25 10.32 6.25 11 6.25 C11 6.91 11 7.57 11 8.25 C11.66 8.25 12.32 8.25 13 8.25 C15.625 10.625 15.625 10.625 18 13.25 C18 13.91 18 14.57 18 15.25 C18.66 15.25 19.32 15.25 20 15.25 C20 15.91 20 16.57 20 17.25 C20.66 17.25 21.32 17.25 22 17.25 C22 17.91 22 18.57 22 19.25 C22.66 19.25 23.32 19.25 24 19.25 C24 19.91 24 20.57 24 21.25 C24.66 21.25 25.32 21.25 26 21.25 C26 21.91 26 22.57 26 23.25 C26.66 23.25 27.32 23.25 28 23.25 C28 23.91 28 24.57 28 25.25 C28.66 25.25 29.32 25.25 30 25.25 C30 25.91 30 26.57 30 27.25 C30.66 27.25 31.32 27.25 32 27.25 C32 27.91 32 28.57 32 29.25 C32.66 29.25 33.32 29.25 34 29.25 C34 29.91 34 30.57 34 31.25 C34.66 31.25 35.32 31.25 36 31.25 C36 31.91 36 32.57 36 33.25 C36.66 33.25 37.32 33.25 38 33.25 C39.625 34.625 39.625 34.625 41 36.25 C41 36.91 41 37.57 41 38.25 C41.66 38.25 42.32 38.25 43 38.25 C43 38.91 43 39.57 43 40.25 C43.66 40.25 44.32 40.25 45 40.25 C46.29272324 42.91148903 47.02401696 44.76966076 46.875 47.75 C45.57470799 51.46512002 43.5708074 54.4645963 40 56.25 C33.52941176 56.60294118 33.52941176 56.60294118 30 54.25 C30 53.59 30 52.93 30 52.25 C29.34 52.25 28.68 52.25 28 52.25 C28 51.59 28 50.93 28 50.25 C27.34 50.25 26.68 50.25 26 50.25 C26 49.59 26 48.93 26 48.25 C25.34 48.25 24.68 48.25 24 48.25 C24 47.59 24 46.93 24 46.25 C23.34 46.25 22.68 46.25 22 46.25 C22 45.59 22 44.93 22 44.25 C21.34 44.25 20.68 44.25 20 44.25 C20 43.59 20 42.93 20 42.25 C19.443125 42.023125 18.88625 41.79625 18.3125 41.5625 C15.3721266 39.89363942 13.3497647 37.66211335 11 35.25 C10.99635437 36.0863649 10.99270874 36.9227298 10.98895264 37.78443909 C10.95100996 45.68506336 10.89408628 53.58527747 10.81609726 61.48561192 C10.77666921 65.54682033 10.74445807 69.60781344 10.72900391 73.66918945 C10.71380615 77.59223936 10.6793064 81.51469719 10.63169098 85.43748283 C10.61690911 86.93045834 10.60896082 88.4235184 10.60811615 89.91656685 C10.59151703 104.55142675 10.59151703 104.55142675 6 110.25 C2.78070427 111.85964787 -0.51887712 111.85686242 -4 111.25 C-7.21954645 108.71546343 -8.70432435 107.13702695 -10 103.25 C-10.11788002 101.05784547 -10.17691937 98.86237425 -10.20532227 96.66723633 C-10.21522186 96.00355545 -10.22512146 95.33987457 -10.23532104 94.65608215 C-10.2668809 92.46476801 -10.29167155 90.27343219 -10.31640625 88.08203125 C-10.33698055 86.56173645 -10.35797715 85.04144731 -10.37937927 83.52116394 C-10.43455084 79.52141913 -10.48398175 75.52162311 -10.53222656 71.52178955 C-10.5824775 67.43961026 -10.63814481 63.35750526 -10.69335938 59.27539062 C-10.80088082 51.2669899 -10.90233911 43.25852701 -11 35.25 C-11.48210938 35.7553125 -11.96421875 36.260625 -12.4609375 36.78125 C-13.09257813 37.4309375 -13.72421875 38.080625 -14.375 38.75 C-15.31472656 39.72453125 -15.31472656 39.72453125 -16.2734375 40.71875 C-18 42.25 -18 42.25 -20 42.25 C-20 42.91 -20 43.57 -20 44.25 C-20.66 44.25 -21.32 44.25 -22 44.25 C-22 44.91 -22 45.57 -22 46.25 C-22.66 46.25 -23.32 46.25 -24 46.25 C-24 46.91 -24 47.57 -24 48.25 C-24.66 48.25 -25.32 48.25 -26 48.25 C-26 48.91 -26 49.57 -26 50.25 C-26.66 50.25 -27.32 50.25 -28 50.25 C-28 50.91 -28 51.57 -28 52.25 C-28.66 52.25 -29.32 52.25 -30 52.25 C-30 52.91 -30 53.57 -30 54.25 C-33.7373856 56.7415904 -35.57331583 56.70793285 -40 56.25 C-43.37065219 54.1527053 -45.86083829 52.12314981 -47 48.25 C-46.70247504 45.27475039 -46.33879403 42.92758805 -45 40.25 C-44.34 40.25 -43.68 40.25 -43 40.25 C-43 39.59 -43 38.93 -43 38.25 C-42.34 38.25 -41.68 38.25 -41 38.25 C-41 37.59 -41 36.93 -41 36.25 C-39.625 34.625 -39.625 34.625 -38 33.25 C-37.34 33.25 -36.68 33.25 -36 33.25 C-36 32.59 -36 31.93 -36 31.25 C-35.34 31.25 -34.68 31.25 -34 31.25 C-34 30.59 -34 29.93 -34 29.25 C-33.34 29.25 -32.68 29.25 -32 29.25 C-32 28.59 -32 27.93 -32 27.25 C-31.34 27.25 -30.68 27.25 -30 27.25 C-30 26.59 -30 25.93 -30 25.25 C-29.34 25.25 -28.68 25.25 -28 25.25 C-28 24.59 -28 23.93 -28 23.25 C-27.34 23.25 -26.68 23.25 -26 23.25 C-26 22.59 -26 21.93 -26 21.25 C-25.34 21.25 -24.68 21.25 -24 21.25 C-24 20.59 -24 19.93 -24 19.25 C-23.34 19.25 -22.68 19.25 -22 19.25 C-22 18.59 -22 17.93 -22 17.25 C-21.34 17.25 -20.68 17.25 -20 17.25 C-20 16.59 -20 15.93 -20 15.25 C-19.34 15.25 -18.68 15.25 -18 15.25 C-18 14.59 -18 13.93 -18 13.25 C-15.625 10.625 -15.625 10.625 -13 8.25 C-12.34 8.25 -11.68 8.25 -11 8.25 C-11 7.59 -11 6.93 -11 6.25 C-10.34 6.25 -9.68 6.25 -9 6.25 C-9 5.59 -9 4.93 -9 4.25 C-8.34 4.25 -7.68 4.25 -7 4.25 C-7 3.59 -7 2.93 -7 2.25 C-4.00261059 0.25174039 -3.36652492 -0.02550398 0 0 Z " fill="#F0F2EF" transform="translate(74,-0.25)"/>
<path d="M0 0 C0.99 0.66 1.98 1.32 3 2 C0.39744739 3.3012763 -1.48819819 3.12293904 -4.40359497 3.12025452 C-5.55066925 3.12162918 -6.69774353 3.12300385 -7.87957764 3.12442017 C-9.14408752 3.12082489 -10.40859741 3.11722961 -11.71142578 3.11352539 C-13.0516052 3.11324343 -14.39178478 3.11340143 -15.73196411 3.1139679 C-19.37637101 3.11425551 -23.02074517 3.10836451 -26.66514444 3.10139394 C-30.47149395 3.09515451 -34.27784416 3.09455613 -38.084198 3.09336853 C-45.29482959 3.09025696 -52.50544608 3.0820459 -59.71607101 3.07201904 C-67.92393979 3.06085251 -76.13180929 3.05534609 -84.33968377 3.05032361 C-101.2264646 3.03986316 -118.1132307 3.02226707 -135 3 C-135 2.67 -135 2.34 -135 2 C-134.31032166 1.99576806 -133.62064333 1.99153612 -132.91006565 1.98717594 C-116.15251051 1.88400972 -99.39500056 1.77539333 -82.63752079 1.66066074 C-74.53383408 1.60531 -66.43014297 1.55182503 -58.32641602 1.50268555 C-51.26575115 1.45986632 -44.20511895 1.41359414 -37.14450449 1.36312145 C-33.40367461 1.33650221 -29.66285129 1.31164878 -25.92198372 1.29092598 C-21.7527089 1.26776545 -17.58352621 1.23689814 -13.41430664 1.20532227 C-12.16490295 1.1995668 -10.91549927 1.19381134 -9.62823486 1.18788147 C-7.9349279 1.17319824 -7.9349279 1.17319824 -6.20741272 1.15821838 C-4.72655229 1.14853956 -4.72655229 1.14853956 -3.21577549 1.1386652 C-1.02640043 1.24692083 -1.02640043 1.24692083 0 0 Z " fill="#C1C1C1" transform="translate(141,145)"/>
<path d="M0 0 C0.99 0.33 1.98 0.66 3 1 C2.49210937 1.42410156 1.98421875 1.84820312 1.4609375 2.28515625 C-2.05047121 5.27708689 -5.29083283 8.21246456 -8.1875 11.8125 C-10.49672978 14.63418899 -12.38650088 16.04348553 -16 17 C-16 16.34 -16 15.68 -16 15 C-15.34 15 -14.68 15 -14 15 C-14 14.34 -14 13.68 -14 13 C-11.625 10.375 -11.625 10.375 -9 8 C-8.34 8 -7.68 8 -7 8 C-7 7.34 -7 6.68 -7 6 C-6.34 6 -5.68 6 -5 6 C-5 5.34 -5 4.68 -5 4 C-4.34 4 -3.68 4 -3 4 C-3 3.34 -3 2.68 -3 2 C-2.01 1.34 -1.02 0.68 0 0 Z " fill="#B9B9B9" transform="translate(70,0)"/>
</svg>
