<?xml version="1.0" encoding="UTF-8"?>
<svg version="1.1" xmlns="http://www.w3.org/2000/svg" width="225" height="225">
<path d="M0 0 C1.6214732 -0.06039082 1.6214732 -0.06039082 3.27570343 -0.12200165 C28.91687184 -0.96586277 51.41441123 -0.90892134 71.07444763 17.20681763 C74.46230305 20.48116877 77.60982563 23.93471593 80.6875 27.5 C81.19034389 28.08179771 81.69318779 28.66359543 82.21126938 29.26302338 C100.42725181 50.58457815 100.42725181 50.58457815 100.45294189 59.96829224 C100.45865204 61.21318924 100.46436218 62.45808624 100.47024536 63.7407074 C100.4714908 65.12808218 100.47261588 66.51545707 100.47363281 67.90283203 C100.47826019 69.3581098 100.48328474 70.81338636 100.48867798 72.2686615 C100.5018159 76.22969723 100.5082502 80.19071599 100.51268864 84.15177011 C100.51561848 86.62730418 100.51972323 89.1028336 100.52419281 91.57836533 C100.5378744 99.32578578 100.54753654 107.07319563 100.5513947 114.82062733 C100.55587048 123.75921408 100.5733932 132.69764753 100.6023953 141.63618767 C100.6240371 148.54670242 100.63410039 155.45717413 100.63543582 162.36772239 C100.63648251 166.49390735 100.64236061 170.61994834 100.66025543 174.74609756 C100.67677831 178.63177806 100.67887129 182.51720705 100.67011642 186.40291023 C100.66934817 187.82505913 100.6736608 189.24722177 100.68357468 190.66933632 C100.78908115 206.75444085 100.78908115 206.75444085 95.125 213.875 C87.42305129 220.03655897 81.28364954 220.70635832 71.67358398 220.62670898 C70.42544922 220.63211197 69.17731445 220.63751495 67.89135742 220.64308167 C64.48822103 220.65340509 61.08606593 220.64591566 57.68301654 220.62937045 C54.11086362 220.61545343 50.53873829 220.62198745 46.96656799 220.62550354 C40.97054904 220.62820009 34.97473092 220.61477693 28.97875977 220.59155273 C22.05880201 220.56493423 15.13917959 220.56320176 8.21918815 220.5749411 C1.54495251 220.58574059 -5.12916251 220.57951562 -11.8033886 220.56538582 C-14.63616749 220.55964601 -17.46885753 220.55969279 -20.30163765 220.56445122 C-24.26054583 220.5701336 -28.21912188 220.55085232 -32.17797852 220.52905273 C-33.93074348 220.53580521 -33.93074348 220.53580521 -35.71891785 220.54269409 C-44.29055793 220.46433697 -50.25166066 219.20329271 -56.6875 213.125 C-60.65994079 207.59195747 -60.83624439 202.26102365 -60.82794189 195.63017273 C-60.83239858 194.51129621 -60.83239858 194.51129621 -60.8369453 193.36981612 C-60.84560394 190.87503199 -60.84713813 188.380296 -60.84863281 185.88549805 C-60.85326295 184.09480691 -60.85828788 182.30411675 -60.86367798 180.51342773 C-60.87678411 175.65177183 -60.88324332 170.79012973 -60.88768864 165.92845893 C-60.89062192 162.88990898 -60.89472719 159.85136277 -60.89919281 156.81281471 C-60.91286232 147.3023479 -60.92253195 137.79188969 -60.9263947 128.28141373 C-60.93087586 117.30928127 -60.94842879 106.33727336 -60.9773953 95.36517876 C-60.99901951 86.87924561 -61.00909936 78.39334749 -61.01043582 69.90738708 C-61.01148321 64.84116532 -61.01737713 59.77506074 -61.03525543 54.70886803 C-61.05174912 49.94246935 -61.05388529 45.17627577 -61.04511642 40.4098587 C-61.04434678 38.66358452 -61.0486792 36.91729925 -61.05857468 35.17105293 C-61.07132236 32.78071881 -61.06540252 30.39110807 -61.05499268 28.0007782 C-61.06304908 27.31544799 -61.07110548 26.63011778 -61.07940602 25.92401999 C-61.00598354 18.6784613 -58.76233892 12.34909889 -53.6875 7.125 C-40.47630095 -2.12283934 -15.50596359 0.56795202 0 0 Z M-48.29848003 16.73532009 C-50.18971636 19.98901663 -50.1095729 22.93640644 -50.08190918 26.59568787 C-50.08800028 27.35103492 -50.09409139 28.10638198 -50.10036707 28.88461834 C-50.11702473 31.41729069 -50.11221743 33.9494618 -50.10742188 36.48217773 C-50.11476059 38.2972974 -50.12334624 40.11241239 -50.13308716 41.92752075 C-50.15533212 46.85932172 -50.15823237 51.79095576 -50.15633965 56.72280002 C-50.15622009 60.83824816 -50.16477815 64.95366074 -50.17311716 69.06909901 C-50.19236178 78.77696571 -50.19523111 88.48474641 -50.18847656 98.19262695 C-50.1818338 108.21179916 -50.20470721 118.2306034 -50.24179029 128.24970096 C-50.27246335 136.84853633 -50.28384995 145.44725317 -50.27995348 154.04614216 C-50.2778836 159.18332914 -50.28340218 164.32022979 -50.30784607 169.45736504 C-50.33007125 174.28789832 -50.3282707 179.11783231 -50.30791855 183.94836807 C-50.30450105 185.72170156 -50.30962936 187.49507507 -50.32390213 189.26835442 C-50.34203969 191.68871499 -50.32938896 194.1070305 -50.30895996 196.52732849 C-50.32147781 197.22986124 -50.33399566 197.93239399 -50.34689283 198.65621561 C-50.27787681 202.46743116 -49.76189236 204.03285815 -47.33615875 207.03735447 C-43.71533574 209.89124985 -41.16833456 210.25060724 -36.69755554 210.26544189 C-35.66716156 210.27115204 -34.63676758 210.27686218 -33.57514954 210.28274536 C-32.44522079 210.28386322 -31.31529205 210.28498108 -30.15112305 210.28613281 C-28.36538879 210.29358017 -28.36538879 210.29358017 -26.5435791 210.30117798 C-23.27692334 210.31328677 -20.01030337 210.32074488 -16.74362922 210.32518864 C-14.70178753 210.32812131 -12.65995143 210.3322265 -10.61811256 210.33669281 C-4.22689709 210.35036531 2.16430558 210.36003299 8.55553466 210.3638947 C15.92806137 210.36837404 23.30040254 210.38591705 30.67287284 210.4148953 C36.37489459 210.43652801 42.07686421 210.44659984 47.77892655 210.44793582 C51.18292926 210.44898278 54.58675751 210.45486706 57.99071693 210.47275543 C61.78993441 210.48979314 65.58869937 210.48794089 69.38793945 210.48144531 C70.5117955 210.4906601 71.63565155 210.49987488 72.79356384 210.5093689 C78.33623158 210.4796554 82.60646672 210.41807965 87.3125 207.125 C89.62076951 203.66259573 89.56011108 202.37756673 89.55300903 198.29743958 C89.55575836 197.0816774 89.55850769 195.86591522 89.56134033 194.61331177 C89.55426209 193.26409814 89.54699247 191.9148855 89.53955078 190.56567383 C89.5389867 189.14653023 89.53930316 187.72738605 89.54043579 186.3082428 C89.54101045 182.45312052 89.52923794 178.59812229 89.51528788 174.74302888 C89.50279928 170.71514147 89.5016115 166.68725132 89.49923706 162.65934753 C89.49301678 155.03082061 89.47659857 147.4023509 89.45653808 139.77384919 C89.43419611 131.08955144 89.42318994 122.40525098 89.41314721 113.72093165 C89.39223281 95.85558864 89.3570462 77.99029892 89.3125 60.125 C88.06114258 60.14594727 86.80978516 60.16689453 85.52050781 60.18847656 C80.87641855 60.26089394 76.23237917 60.30680618 71.58789062 60.34472656 C69.57803962 60.36483805 67.56824709 60.39213115 65.55859375 60.42675781 C62.66912404 60.47529634 59.78042809 60.49797322 56.890625 60.515625 C55.54354462 60.54659271 55.54354462 60.54659271 54.16925049 60.57818604 C47.98013149 60.58041058 47.98013149 60.58041058 44.74798584 58.37567139 C43.17131741 55.90364245 42.80078682 54.62937977 42.76660156 51.72363281 C42.74688293 50.8630426 42.72716431 50.00245239 42.70684814 49.11578369 C42.70561951 48.19585632 42.70439087 47.27592896 42.703125 46.328125 C42.68658875 45.37935486 42.67005249 44.43058472 42.65301514 43.45306396 C42.60448561 40.42697712 42.58315305 37.40139299 42.5625 34.375 C42.53434449 32.32158922 42.50441765 30.26820192 42.47265625 28.21484375 C42.39872516 23.18493721 42.34918067 18.15531056 42.3125 13.125 C31.44663203 13.07865426 20.58078758 13.04311937 9.71484089 13.02137566 C4.66931478 13.01093964 -0.37614368 12.99678368 -5.42163086 12.97412109 C-10.29103574 12.95238635 -15.16037556 12.94043 -20.02982521 12.93524551 C-21.88735796 12.9315509 -23.74488715 12.92433629 -25.6023922 12.91353989 C-28.20465152 12.89901664 -30.8066422 12.89702241 -33.40893555 12.89794922 C-34.1764212 12.89075867 -34.94390686 12.88356812 -35.73464966 12.87615967 C-40.71882451 12.89536082 -44.66098992 13.09932008 -48.29848003 16.73532009 Z M53.3125 21.125 C53.3125 30.695 53.3125 40.265 53.3125 50.125 C62.8825 50.125 72.4525 50.125 82.3125 50.125 C78.57324385 45.76253449 74.98063362 41.66546558 70.94921875 37.62890625 C70.47176712 37.15049789 69.99431549 36.67208954 69.50239563 36.17918396 C68.50795015 35.18406577 67.51227222 34.1901777 66.51538086 33.19750977 C64.98236628 31.66992879 63.45486233 30.13697919 61.92773438 28.60351562 C60.95605027 27.63249107 59.98405669 26.66177608 59.01171875 25.69140625 C58.13346436 24.81427979 57.25520996 23.93715332 56.3503418 23.03344727 C54.6561746 21.01107431 54.6561746 21.01107431 53.3125 21.125 Z " fill="#1C11E5" transform="translate(92.6875,0.875)"/>
<path d="M0 0 C0.33 0 0.66 0 1 0 C1.00146656 0.9497533 1.00293312 1.89950661 1.00444412 2.87804031 C1.04101331 25.97070403 1.10042889 49.06322242 1.18390274 72.15576553 C1.22373903 83.32308448 1.25610818 94.49033248 1.27099609 105.65771484 C1.28398884 115.3894075 1.31089254 125.12094438 1.35461307 134.85254931 C1.37728144 140.00702364 1.39290747 145.16130544 1.39188385 150.31583405 C1.39114041 155.16516903 1.40896366 160.01407754 1.44116783 164.86330223 C1.44970253 166.64509068 1.45139268 168.42692676 1.44580269 170.20872688 C1.43919467 172.63820931 1.45700472 175.06632208 1.48101807 177.4956665 C1.47325765 178.20384057 1.46549723 178.91201464 1.45750165 179.64164853 C1.51609667 182.98094947 1.78825047 184.72379554 3.84493637 187.40652084 C7.21322917 189.89707579 9.92646306 190.12695871 13.98994446 190.14044189 C15.02033844 190.14615204 16.05073242 190.15186218 17.11235046 190.15774536 C18.24227921 190.15886322 19.37220795 190.15998108 20.53637695 190.16113281 C22.32211121 190.16858017 22.32211121 190.16858017 24.1439209 190.17617798 C27.41057666 190.18828677 30.67719663 190.19574488 33.94387078 190.20018864 C35.98571247 190.20312131 38.02754857 190.2072265 40.06938744 190.21169281 C46.46060291 190.22536531 52.85180558 190.23503299 59.24303466 190.2388947 C66.61556137 190.24337404 73.98790254 190.26091705 81.36037284 190.2898953 C87.06239459 190.31152801 92.76436421 190.32159984 98.46642655 190.32293582 C101.87042926 190.32398278 105.27425751 190.32986706 108.67821693 190.34775543 C112.47743441 190.36479314 116.27619937 190.36294089 120.07543945 190.35644531 C121.1992955 190.3656601 122.32315155 190.37487488 123.48106384 190.3843689 C129.02978539 190.35462295 133.26963862 190.27179617 138 187 C139.33453205 184.3309359 139.14001805 182.28274949 139.15821838 179.29269409 C139.1680072 178.07830658 139.17779602 176.86391907 139.18788147 175.61273193 C139.19378602 174.25988809 139.19959644 172.90704383 139.20532227 171.55419922 C139.21489839 170.13520012 139.22490831 168.7162039 139.23532104 167.29721069 C139.26240501 163.43796639 139.28339563 159.57870982 139.30332303 155.71942282 C139.32516108 151.68883103 139.35256042 147.65827723 139.37937927 143.62771606 C139.42933571 135.99212088 139.47426357 128.35650465 139.51740164 120.72086823 C139.56674883 112.02930559 139.62167628 103.33778106 139.67708123 94.64625525 C139.79094656 76.76420553 139.89777567 58.88211987 140 41 C140.33 41 140.66 41 141 41 C141.02334237 60.24498884 141.04098577 79.48997481 141.05181217 98.73497486 C141.05697228 107.67040797 141.06400956 116.60583229 141.07543945 125.54125977 C141.08539498 133.32779229 141.09185551 141.11431844 141.09408849 148.90085715 C141.09539412 153.02518386 141.09847065 157.14949236 141.10573006 161.27381325 C141.11250395 165.15363674 141.11461415 169.03343448 141.11310768 172.91326332 C141.11338339 174.33911784 141.11538041 175.76497319 141.11920547 177.1908226 C141.12416399 179.13407014 141.12239257 181.07733142 141.12025452 183.02058411 C141.12163721 184.65354038 141.12163721 184.65354038 141.12304783 186.31948566 C141 189 141 189 140 192 C141.98 192 143.96 192 146 192 C146 190.68 146 189.36 146 188 C145.34 188 144.68 188 144 188 C144.47550561 186.51965236 144.95551216 185.04074979 145.4375 183.5625 C145.70433594 182.73878906 145.97117188 181.91507813 146.24609375 181.06640625 C147 179 147 179 148 178 C148.1087069 176.15274827 148.14688602 174.30132533 148.15821838 172.45091248 C148.1680072 171.24631378 148.17779602 170.04171509 148.18788147 168.8006134 C148.19378641 167.45358316 148.19959681 166.1065525 148.20532227 164.75952148 C148.21489551 163.35052194 148.22490526 161.94152531 148.23532104 160.53253174 C148.26243623 156.69595498 148.28340985 152.85936584 148.30332303 149.02274585 C148.32514194 145.01750586 148.3525506 141.01230433 148.37937927 137.00709534 C148.42936171 129.41750785 148.47427987 121.82789909 148.51740164 114.23826987 C148.56672668 105.59993345 148.6216623 96.96163561 148.67708123 88.32333648 C148.79098645 70.54892678 148.8978068 52.7744807 149 35 C149.66 35 150.32 35 151 35 C151.07013696 54.28899674 151.12301114 73.57796754 151.15543652 92.86706543 C151.17089356 101.8236925 151.19196083 110.78024025 151.22631836 119.73681641 C151.25625634 127.5450054 151.27558346 135.35313693 151.28226548 143.16138172 C151.2861703 147.29431586 151.29532284 151.42708566 151.31719017 155.55996704 C151.3376249 159.45381344 151.34381976 163.34742854 151.33932304 167.24132347 C151.34014513 168.66670173 151.34606917 170.0920881 151.35761642 171.51741982 C151.48164301 187.62307736 151.48164301 187.62307736 145.8125 194.75 C138.11055129 200.91155897 131.97114954 201.58135832 122.36108398 201.50170898 C121.11294922 201.50711197 119.86481445 201.51251495 118.57885742 201.51808167 C115.17572103 201.52840509 111.77356593 201.52091566 108.37051654 201.50437045 C104.79836362 201.49045343 101.22623829 201.49698745 97.65406799 201.50050354 C91.65804904 201.50320009 85.66223092 201.48977693 79.66625977 201.46655273 C72.74630201 201.43993423 65.82667959 201.43820176 58.90668815 201.4499411 C52.23245251 201.46074059 45.55833749 201.45451562 38.8841114 201.44038582 C36.05133251 201.43464601 33.21864247 201.43469279 30.38586235 201.43945122 C26.42695417 201.4451336 22.46837812 201.42585232 18.50952148 201.40405273 C16.75675652 201.41080521 16.75675652 201.41080521 14.96858215 201.41769409 C7.28066312 201.34741545 2.58096431 200.2857219 -3.9375 196.125 C-6 194 -6 194 -6.25 191.5 C-6.1675 190.675 -6.085 189.85 -6 189 C-6.37125 188.0409375 -6.37125 188.0409375 -6.75 187.0625 C-7.17135775 183.58629855 -5.05502685 181.64217737 -3 179 C-2.34 178.67 -1.68 178.34 -1 178 C-0.67 119.26 -0.34 60.52 0 0 Z " fill="#4C44E6" transform="translate(42,20)"/>
<path d="M0 0 C0.66 0.33 1.32 0.66 2 1 C1.67 1.66 1.34 2.32 1 3 C1.84304687 2.69320313 2.68609375 2.38640625 3.5546875 2.0703125 C7 2 7 2 8.74316406 3.21386719 C10.61935934 5.03814782 12.38247165 6.92261878 14.125 8.875 C15.32890027 10.19136654 16.53960478 11.50155026 17.7578125 12.8046875 C18.54889404 13.68616455 18.54889404 13.68616455 19.35595703 14.58544922 C20.86766517 16.13221479 20.86766517 16.13221479 22.74820709 16.29700565 C28.21832614 18.00473941 32.92683172 23.23477124 36 28 C37.46599788 32.84884671 37.39524595 37.36480541 37.23632812 42.40063477 C37.23153685 43.81457725 37.23155925 45.22854287 37.23597717 46.64248657 C37.23377184 50.45197327 37.16312505 54.25731369 37.07806206 58.06573606 C36.99918724 62.06856292 36.97991799 66.07172999 36.95275879 70.07518005 C36.89847686 76.79473479 36.80191715 83.51260214 36.67724609 90.23120117 C36.53378067 97.9775196 36.44584264 105.7228475 36.39023829 113.47026402 C36.3304461 121.75050447 36.23301614 130.02998033 36.12306786 138.30969119 C36.09387063 140.68160664 36.0712809 143.05350947 36.05006409 145.4255085 C36.01453051 149.16495881 35.95339395 152.90319122 35.87316704 156.64194107 C35.83540514 158.65309164 35.82112056 160.66464104 35.80775452 162.67610168 C35.60507572 170.59173469 34.24747425 176.27312123 30 183 C30.66 183 31.32 183 32 183 C32 184.32 32 185.64 32 187 C30.02 187 28.04 187 26 187 C26.33 137.17 26.66 87.34 27 36 C12.81 36.33 -1.38 36.66 -16 37 C-20 34 -20 34 -20.390625 31.95703125 C-20.26041667 29.97135417 -20.13020833 27.98567708 -20 26 C-19.67 26 -19.34 26 -19 26 C-18.67 27.65 -18.34 29.3 -18 31 C-17.67 30.34 -17.34 29.68 -17 29 C-16.38125 29.165 -15.7625 29.33 -15.125 29.5 C-13.03936614 30.07634644 -13.03936614 30.07634644 -11 30 C-10.67 29.01 -10.34 28.02 -10 27 C-0.1 27 9.8 27 20 27 C18.11209285 22.25992549 18.11209285 22.25992549 15 19 C15 18.34 15 17.68 15 17 C14.4225 16.773125 13.845 16.54625 13.25 16.3125 C10.42085466 14.66216522 9.01725404 12.56741423 7 10 C5.35704805 8.63755204 3.69175663 7.30135125 2 6 C0.9826127 5.01769502 -0.02596117 4.02530403 -1 3 C-0.67 2.01 -0.34 1.02 0 0 Z " fill="#0E01F0" transform="translate(156,25)"/>
<path d="M0 0 C1.26386032 -0.01007584 1.26386032 -0.01007584 2.55325317 -0.02035522 C5.34228388 -0.03937426 8.13107448 -0.04326125 10.92016602 -0.04541016 C12.85685832 -0.05183493 14.79354963 -0.05856304 16.73023987 -0.06558228 C20.79137422 -0.0775645 24.85242344 -0.08126208 28.91357422 -0.08007812 C34.12037717 -0.07987478 39.32663525 -0.1071886 44.53330898 -0.14162254 C48.53357964 -0.16384621 52.53371818 -0.16791708 56.53404427 -0.16685867 C58.45381614 -0.16922103 60.37359132 -0.17808009 62.29330254 -0.19352341 C64.97717479 -0.21309368 67.65985911 -0.20738119 70.34375 -0.1953125 C71.13817001 -0.20655151 71.93259003 -0.21779053 72.75108337 -0.22937012 C76.32168596 -0.18851643 78.35355543 0.00781536 81.26502991 2.15682983 C82.73657227 4.29052734 82.73657227 4.29052734 82.67407227 6.91552734 C81.73657227 9.29052734 81.73657227 9.29052734 78.73657227 11.29052734 C75.94907898 11.49034828 73.26125891 11.57385825 70.47314453 11.56518555 C69.63057098 11.57029648 68.78799744 11.57540741 67.91989136 11.58067322 C65.13084843 11.59458887 62.34205206 11.59361097 59.55297852 11.59130859 C57.61628629 11.59519444 55.67959492 11.59952888 53.74290466 11.60429382 C49.68176512 11.61176028 45.62071251 11.61146167 41.55957031 11.60620117 C36.3528539 11.60040599 31.14649315 11.61733668 25.93983555 11.64054585 C21.93956926 11.65527096 17.93938886 11.65615655 13.93910027 11.65303612 C12.01934034 11.65354995 10.09957569 11.65879918 8.179842 11.66884804 C5.49612378 11.68117145 2.81310143 11.67444551 0.12939453 11.6628418 C-1.06223549 11.6743074 -1.06223549 11.6743074 -2.27793884 11.68600464 C-6.54011804 11.6452293 -9.18412183 11.37250828 -12.26342773 8.29052734 C-11.95092773 5.41552734 -11.95092773 5.41552734 -11.26342773 2.29052734 C-7.4633212 -0.24287701 -4.40412711 -0.005012 0 0 Z " fill="#352CE7" transform="translate(77.263427734375,134.70947265625)"/>
<path d="M0 0 C0.82031204 0.00247742 1.64062408 0.00495483 2.48579407 0.00750732 C3.34933502 0.00239639 4.21287598 -0.00271454 5.10258484 -0.00798035 C7.96680059 -0.02191906 10.83077688 -0.02091636 13.69502258 -0.01861572 C15.68038015 -0.02250035 17.66573688 -0.02683453 19.65109253 -0.03160095 C23.81656079 -0.03907241 27.9819443 -0.03876523 32.14741516 -0.0335083 C37.49213866 -0.02771296 42.83651571 -0.04464179 48.18118191 -0.06785297 C52.28263384 -0.08256691 56.38400189 -0.0834652 60.48547554 -0.08034325 C62.45630136 -0.08085765 64.42713173 -0.0861177 66.39793205 -0.09615517 C69.15140834 -0.10845678 71.90420412 -0.10176577 74.65766907 -0.09014893 C75.47595688 -0.09779266 76.29424469 -0.1054364 77.1373291 -0.11331177 C82.6850673 -0.06143347 82.6850673 -0.06143347 84.88102818 1.61024189 C86.13642883 3.28216553 86.13642883 3.28216553 85.94892883 6.40716553 C85.68080383 7.35591553 85.41267883 8.30466553 85.13642883 9.28216553 C81.87189188 10.91443401 78.26747367 10.43847303 74.67939758 10.44329834 C73.80449677 10.44826324 72.92959595 10.45322815 72.02818298 10.45834351 C69.12675702 10.47297937 66.22538568 10.47976852 63.32392883 10.48529053 C61.31375628 10.49103958 59.30358376 10.49679734 57.29341125 10.50256348 C53.07669315 10.51307668 48.85999414 10.51891766 44.64326477 10.5223999 C39.22896544 10.52789376 33.81491645 10.55193945 28.4006958 10.58037186 C24.24868521 10.59895305 20.09673556 10.60420135 15.94468689 10.60573578 C13.94790779 10.60877168 11.95112999 10.61683151 9.95439148 10.62992096 C7.16721763 10.64689177 4.38066398 10.64512367 1.59346008 10.63861084 C0.76222626 10.64782562 -0.06900757 10.65704041 -0.9254303 10.66653442 C-3.21977234 10.6496582 -3.21977234 10.6496582 -6.86357117 10.28216553 C-8.86357117 7.28216553 -8.86357117 7.28216553 -8.61357117 4.71966553 C-7.10841548 -0.17209047 -4.6874044 0.0444407 0 0 Z " fill="#0D00EB" transform="translate(73.86357116699219,97.71783447265625)"/>
<path d="M0 0 C0.82031204 0.00247742 1.64062408 0.00495483 2.48579407 0.00750732 C3.34933502 0.00239639 4.21287598 -0.00271454 5.10258484 -0.00798035 C7.96680059 -0.02191906 10.83077688 -0.02091636 13.69502258 -0.01861572 C15.68038015 -0.02250035 17.66573688 -0.02683453 19.65109253 -0.03160095 C23.81656079 -0.03907241 27.9819443 -0.03876523 32.14741516 -0.0335083 C37.49213866 -0.02771296 42.83651571 -0.04464179 48.18118191 -0.06785297 C52.28263384 -0.08256691 56.38400189 -0.0834652 60.48547554 -0.08034325 C62.45630136 -0.08085765 64.42713173 -0.0861177 66.39793205 -0.09615517 C69.15140834 -0.10845678 71.90420412 -0.10176577 74.65766907 -0.09014893 C75.47595688 -0.09779266 76.29424469 -0.1054364 77.1373291 -0.11331177 C82.6850673 -0.06143347 82.6850673 -0.06143347 84.88102818 1.61024189 C86.13642883 3.28216553 86.13642883 3.28216553 85.94892883 6.40716553 C85.68080383 7.35591553 85.41267883 8.30466553 85.13642883 9.28216553 C81.89800608 10.9013769 78.34570927 10.43844889 74.7870636 10.44329834 C73.92352264 10.44826324 73.05998169 10.45322815 72.17027283 10.45834351 C69.30611889 10.47298043 66.44202031 10.47976912 63.57783508 10.48529053 C61.59247841 10.49104003 59.60712176 10.49679779 57.62176514 10.50256348 C53.45632162 10.51307735 49.29089743 10.51891771 45.1254425 10.5223999 C39.78074231 10.5278902 34.43629617 10.55192804 29.09167576 10.58037186 C24.99023688 10.59896801 20.88885961 10.60420219 16.78738213 10.60573578 C14.81654913 10.60876889 12.84571739 10.61681948 10.87492561 10.62992096 C8.12148143 10.64692094 5.36866355 10.6451163 2.6151886 10.63861084 C1.38775688 10.65243301 1.38775688 10.65243301 0.13552856 10.66653442 C-5.42436714 10.62525435 -5.42436714 10.62525435 -7.60817051 8.91935349 C-8.86357117 7.28216553 -8.86357117 7.28216553 -8.67607117 4.71966553 C-7.05745351 -0.13618746 -4.72307135 0.04477886 0 0 Z " fill="#241CE7" transform="translate(73.86357116699219,172.71783447265625)"/>
<path d="M0 0 C7.11905227 5.80683219 13.47374812 12.36285444 19.9375 18.875 C21.10979204 20.05231638 22.28231614 21.22940174 23.45507812 22.40625 C26.30606982 25.26817489 29.15389615 28.13321457 32 31 C31.34 31.66 30.68 32.32 30 33 C29.60731934 32.57589844 29.21463867 32.15179688 28.81005859 31.71484375 C27.01441194 29.79414031 25.19536416 27.89728095 23.375 26 C22.75753906 25.33226563 22.14007813 24.66453125 21.50390625 23.9765625 C17.72723129 19.97672021 17.72723129 19.97672021 12.5390625 18.5625 C11.70117188 18.706875 10.86328125 18.85125 10 19 C9.67 18.34 9.34 17.68 9 17 C10.70062419 21.10984179 13.06925831 23.03462915 17 25 C17.433125 25.7425 17.86625 26.485 18.3125 27.25 C20.20141548 30.32823264 22.41994571 32.48287386 25 35 C29 39.54054054 29 39.54054054 29 43 C19.1 43.33 9.2 43.66 -1 44 C-0.67 44.66 -0.34 45.32 0 46 C-1.32 46.66 -2.64 47.32 -4 48 C-4.33 47.34 -4.66 46.68 -5 46 C-5.99 45.67 -6.98 45.34 -8 45 C-8.33 45.99 -8.66 46.98 -9 48 C-9.99 48 -10.98 48 -12 48 C-12 33.81 -12 19.62 -12 5 C-11.34 5 -10.68 5 -10 5 C-10 5.66 -10 6.32 -10 7 C-9.34 7 -8.68 7 -8 7 C-8.33 5.68 -8.66 4.36 -9 3 C-6.11562221 4.29299694 -4.12780579 5.65941363 -2 8 C-2 7.01 -2 6.02 -2 5 C-1.01 4.67 -0.02 4.34 1 4 C0.67 2.68 0.34 1.36 0 0 Z M-1 13 C-1 22.57 -1 32.14 -1 42 C8.57 42 18.14 42 28 42 C24.26074385 37.63753449 20.66813362 33.54046558 16.63671875 29.50390625 C16.15926712 29.02549789 15.68181549 28.54708954 15.18989563 28.05418396 C14.19545015 27.05906577 13.19977222 26.0651777 12.20288086 25.07250977 C10.66986628 23.54492879 9.14236233 22.01197919 7.61523438 20.47851562 C6.64355027 19.50749107 5.67155669 18.53677608 4.69921875 17.56640625 C3.82096436 16.68927979 2.94270996 15.81215332 2.0378418 14.90844727 C0.3436746 12.88607431 0.3436746 12.88607431 -1 13 Z " fill="#3025EB" transform="translate(147,9)"/>
<path d="M0 0 C0.82031204 0.00247742 1.64062408 0.00495483 2.48579407 0.00750732 C3.34933502 0.00239639 4.21287598 -0.00271454 5.10258484 -0.00798035 C7.96680059 -0.02191906 10.83077688 -0.02091636 13.69502258 -0.01861572 C15.68038015 -0.02250035 17.66573688 -0.02683453 19.65109253 -0.03160095 C23.81656079 -0.03907241 27.9819443 -0.03876523 32.14741516 -0.0335083 C37.49213866 -0.02771296 42.83651571 -0.04464179 48.18118191 -0.06785297 C52.28263384 -0.08256691 56.38400189 -0.0834652 60.48547554 -0.08034325 C62.45630136 -0.08085765 64.42713173 -0.0861177 66.39793205 -0.09615517 C69.15140834 -0.10845678 71.90420412 -0.10176577 74.65766907 -0.09014893 C75.47595688 -0.09779266 76.29424469 -0.1054364 77.1373291 -0.11331177 C82.6850673 -0.06143347 82.6850673 -0.06143347 84.88102818 1.61024189 C86.13642883 3.28216553 86.13642883 3.28216553 85.94892883 6.40716553 C85.68080383 7.35591553 85.41267883 8.30466553 85.13642883 9.28216553 C81.87189188 10.91443401 78.26747367 10.43847303 74.67939758 10.44329834 C73.80449677 10.44826324 72.92959595 10.45322815 72.02818298 10.45834351 C69.12675702 10.47297937 66.22538568 10.47976852 63.32392883 10.48529053 C61.31375628 10.49103958 59.30358376 10.49679734 57.29341125 10.50256348 C53.07669315 10.51307668 48.85999414 10.51891766 44.64326477 10.5223999 C39.22896544 10.52789376 33.81491645 10.55193945 28.4006958 10.58037186 C24.24868521 10.59895305 20.09673556 10.60420135 15.94468689 10.60573578 C13.94790779 10.60877168 11.95112999 10.61683151 9.95439148 10.62992096 C7.16721763 10.64689177 4.38066398 10.64512367 1.59346008 10.63861084 C0.76222626 10.64782562 -0.06900757 10.65704041 -0.9254303 10.66653442 C-3.21977234 10.6496582 -3.21977234 10.6496582 -6.86357117 10.28216553 C-8.86357117 7.28216553 -8.86357117 7.28216553 -8.61357117 4.71966553 C-7.10841548 -0.17209047 -4.6874044 0.0444407 0 0 Z M-6.86357117 3.28216553 C-6.53357117 5.26216553 -6.20357117 7.24216553 -5.86357117 9.28216553 C23.50642883 9.28216553 52.87642883 9.28216553 83.13642883 9.28216553 C82.64142883 7.30216553 82.64142883 7.30216553 82.13642883 5.28216553 C81.47642883 5.61216553 80.81642883 5.94216553 80.13642883 6.28216553 C80.13642883 5.29216553 80.13642883 4.30216553 80.13642883 3.28216553 C51.42642883 3.28216553 22.71642883 3.28216553 -6.86357117 3.28216553 Z " fill="#413DE1" transform="translate(73.86357116699219,97.71783447265625)"/>
<path d="M0 0 C0.33 0 0.66 0 1 0 C1.66 2.31 2.32 4.62 3 7 C3.82019119 7.0154612 3.82019119 7.0154612 4.6569519 7.03123474 C10.33441385 7.13919328 16.01171364 7.25379974 21.68896484 7.37231445 C23.80937313 7.41569752 25.92981712 7.45737007 28.05029297 7.49731445 C31.09353408 7.55493543 34.1365949 7.61865325 37.1796875 7.68359375 C38.13181122 7.70030624 39.08393494 7.71701874 40.06491089 7.73423767 C41.38605392 7.7641555 41.38605392 7.7641555 42.73388672 7.79467773 C43.51110077 7.81022202 44.28831482 7.8257663 45.08908081 7.84178162 C47 8 47 8 49 9 C49 56.52 49 104.04 49 153 C48.34 153.33 47.68 153.66 47 154 C47 106.48 47 58.96 47 10 C32.81 10.33 18.62 10.66 4 11 C0 8 0 8 -0.390625 5.95703125 C-0.26041667 3.97135417 -0.13020833 1.98567708 0 0 Z " fill="#0E07BD" transform="translate(136,51)"/>
<path d="M0 0 C12.31727771 -0.11577178 24.63442633 -0.20465364 36.95213699 -0.25906086 C42.67157436 -0.28517168 48.39063992 -0.32059754 54.10986328 -0.37719727 C59.62767956 -0.431463 65.14513788 -0.46140934 70.66320038 -0.47438622 C72.7700133 -0.4836358 74.87680628 -0.50169794 76.9834671 -0.52865028 C79.93114287 -0.56486783 82.8773334 -0.56994834 85.82519531 -0.56762695 C86.69913437 -0.58560333 87.57307343 -0.60357971 88.47349548 -0.62210083 C94.42013222 -0.57131685 94.42013222 -0.57131685 97.57342529 2.53547668 C98.04419495 3.34876938 98.5149646 4.16206207 99 5 C98.01 5 97.02 5 96 5 C95.505 4.505 95.505 4.505 95 4 C91.98723889 3.87465012 88.99630417 3.81387984 85.98217773 3.79467773 C84.56281418 3.77982834 84.56281418 3.77982834 83.11477661 3.76467896 C79.97107489 3.73296197 76.82735802 3.70826639 73.68359375 3.68359375 C71.51025488 3.66303302 69.33692009 3.64203679 67.16358948 3.62062073 C61.43103326 3.56530905 55.69844042 3.51594003 49.96582031 3.46777344 C44.12106042 3.41762465 38.276354 3.3619041 32.43164062 3.30664062 C20.95447272 3.19894787 9.47725847 3.09752775 -2 3 C-1.34 2.67 -0.68 2.34 0 2 C0 1.34 0 0.68 0 0 Z " fill="#4842DA" transform="translate(48,4)"/>
<path d="M0 0 C2.45977906 2.45977906 2.24489192 3.83809666 2.27967364 7.19555712 C2.27705678 7.92375642 2.27443993 8.65195573 2.27174377 9.40222168 C2.27683061 10.17431079 2.28191745 10.94639991 2.28715843 11.74188566 C2.30188474 14.34294759 2.30235412 16.9438211 2.30297852 19.54492188 C2.31063533 21.40402091 2.31918086 23.26311646 2.32855225 25.12220764 C2.34686408 29.13226201 2.35888142 33.14226943 2.36609077 37.15235901 C2.37754687 43.48765167 2.40298955 49.82284022 2.43040466 56.15808105 C2.47209732 66.17479208 2.50449253 76.19150804 2.53287882 86.20826483 C2.58381756 104.15419385 2.64589726 122.10007972 2.71821922 140.04593515 C2.74319374 146.34932028 2.76260194 152.65269161 2.77760136 158.95610809 C2.78777949 162.87091752 2.80192542 166.78570556 2.81707764 170.70049858 C2.82325223 172.52184485 2.82770079 174.34319786 2.83033562 176.16455269 C2.83412597 178.64233454 2.84392166 181.12002116 2.85523987 183.59777832 C2.85485374 184.32597763 2.8544676 185.05417693 2.85406977 185.80444288 C2.82434419 189.52686238 2.82434419 189.52686238 4 193 C3.01 193.99 3.01 193.99 2 195 C-0.44844076 191.32733886 -0.27400332 188.59510514 -0.24050903 184.35017395 C-0.24221788 183.56356862 -0.24392673 182.77696329 -0.24568737 181.96652144 C-0.24898993 179.32239716 -0.23796602 176.67852486 -0.22705078 174.03442383 C-0.22648683 172.14237982 -0.22680291 170.25033538 -0.22793579 168.35829163 C-0.22851094 163.21396711 -0.21673036 158.06973535 -0.20278788 152.92543244 C-0.19030756 147.55223702 -0.18911215 142.17903959 -0.18673706 136.80583191 C-0.18051434 126.62736224 -0.16409282 116.44893541 -0.14403808 106.27048463 C-0.1217037 94.68418441 -0.11069185 83.09788218 -0.10064721 71.5115658 C-0.07972728 47.67435343 -0.04453594 23.83717911 0 0 Z " fill="#1B0BDA" transform="translate(33,17)"/>
<path d="M0 0 C0.33 0 0.66 0 1 0 C2.08738364 5.25389325 2.77659609 9.58152792 0 14.375 C-2.79153682 18.21921132 -5.64547876 20.14529651 -10 22 C-10.99 21.67 -11.98 21.34 -13 21 C-13 19.68 -13 18.36 -13 17 C-13.30840599 14.84725052 -13.30840599 14.84725052 -14 13 C-14.66 12.67 -15.32 12.34 -16 12 C-14.5459375 11.319375 -14.5459375 11.319375 -13.0625 10.625 C-9.92920418 9.34213779 -9.92920418 9.34213779 -9 7 C-8.34 7 -7.68 7 -7 7 C-7.33 9.31 -7.66 11.62 -8 14 C-6.02 14 -4.04 14 -2 14 C-2 12.68 -2 11.36 -2 10 C-2.66 10 -3.32 10 -4 10 C-3.52449439 8.51965236 -3.04448784 7.04074979 -2.5625 5.5625 C-2.16224609 4.32693359 -2.16224609 4.32693359 -1.75390625 3.06640625 C-1 1 -1 1 0 0 Z " fill="#261CDF" transform="translate(190,198)"/>
<path d="M0 0 C0.33 0 0.66 0 1 0 C1 2.31 1 4.62 1 7 C1.99 7 2.98 7 4 7 C5.37562854 8.28965176 6.70766393 9.62689293 8 11 C8.99 11.66 9.98 12.32 11 13 C4.25 14.125 4.25 14.125 2 13 C2.33 14.98 2.66 16.96 3 19 C4.65 18.67 6.3 18.34 8 18 C8 19.32 8 20.64 8 22 C2.37920259 21.59851447 -0.20009476 19.98085311 -4 16 C-4.3125 13.4375 -4.3125 13.4375 -4 11 C-4.2475 10.360625 -4.495 9.72125 -4.75 9.0625 C-5.1677022 5.61645681 -3.00217472 3.64993712 -1 1 C-0.67 0.67 -0.34 0.34 0 0 Z " fill="#0E01EB" transform="translate(40,198)"/>
<path d="M0 0 C0.99 0.33 1.98 0.66 3 1 C3.6875 3.3125 3.6875 3.3125 4 6 C2.75478458 7.64457989 2.75478458 7.64457989 1 9 C-1.92790219 9.29109174 -4.64225339 9.39935909 -7.57055664 9.37231445 C-8.88312691 9.37779045 -8.88312691 9.37779045 -10.22221375 9.38337708 C-13.11839118 9.39149184 -16.01401081 9.37786586 -18.91015625 9.36328125 C-20.91889953 9.3627628 -22.92764333 9.36327991 -24.93638611 9.36479187 C-29.14720224 9.36470211 -33.35782706 9.35426364 -37.56860352 9.33618164 C-42.97499899 9.31347981 -48.38111517 9.31295258 -53.7875452 9.31969929 C-57.93528236 9.3230351 -62.08295545 9.31641674 -66.23068047 9.30657005 C-68.22465111 9.30271217 -70.21862887 9.30157226 -72.21260262 9.3031559 C-74.99482011 9.30352535 -77.77667473 9.29094073 -80.55883789 9.2746582 C-81.80333206 9.27837433 -81.80333206 9.27837433 -83.07296753 9.28216553 C-88.77125772 9.22874228 -88.77125772 9.22874228 -91 7 C-90.625 3.875 -90.625 3.875 -90 1 C-89.67 1 -89.34 1 -89 1 C-89 2.98 -89 4.96 -89 7 C-59.3 7 -29.6 7 1 7 C0.505 3.535 0.505 3.535 0 0 Z " fill="#1E12DD" transform="translate(156,136)"/>
<path d="M0 0 C0.99 0.33 1.98 0.66 3 1 C2.67 2.98 2.34 4.96 2 7 C-27.04 7 -56.08 7 -86 7 C-86 6.67 -86 6.34 -86 6 C-57.62 6 -29.24 6 0 6 C0 4.02 0 2.04 0 0 Z " fill="#0900CB" transform="translate(157,175)"/>
<path d="M0 0 C5.9825857 1.99419523 9.80307095 6.72840947 13.60546875 11.546875 C15.04648744 13.27411743 15.04648744 13.27411743 18 14 C19.01351664 15.65848177 20.01120795 17.32665961 21 19 C22.6454378 20.68762851 24.31288577 22.3540349 26 24 C27.35555293 25.64864545 28.69631653 27.31003995 30 29 C26.23939005 29 25.3028314 27.66292815 22.72164917 25.11283875 C22.17155182 24.55353165 21.62145447 23.99422455 21.0546875 23.41796875 C20.48420685 22.8479866 19.9137262 22.27800446 19.32595825 21.69075012 C18.12043752 20.48288747 16.91861232 19.2713269 15.72021484 18.05639648 C13.88402695 16.1966428 12.03491689 14.3505337 10.18359375 12.50585938 C9.01483089 11.33151897 7.84683597 10.15641367 6.6796875 8.98046875 C6.12554169 8.42723434 5.57139587 7.87399994 5.00045776 7.30400085 C2.62683913 4.88608659 1.08628391 3.25885173 0 0 Z " fill="#2A1EDB" transform="translate(146,20)"/>
<path d="M0 0 C0.556875 0.226875 1.11375 0.45375 1.6875 0.6875 C1.0275 0.6875 0.3675 0.6875 -0.3125 0.6875 C-0.6425 2.0075 -0.9725 3.3275 -1.3125 4.6875 C-3.2925 5.0175 -5.2725 5.3475 -7.3125 5.6875 C-6.6525 6.0175 -5.9925 6.3475 -5.3125 6.6875 C-5.3125 7.3475 -5.3125 8.0075 -5.3125 8.6875 C-2.0125 8.6875 1.2875 8.6875 4.6875 8.6875 C2.7075 9.6775 2.7075 9.6775 0.6875 10.6875 C-1.01746537 12.31496694 -2.69147032 13.97641311 -4.3125 15.6875 C-6.3125 12.6875 -6.3125 12.6875 -6.3125 10.6875 C-8.2925 11.0175 -10.2725 11.3475 -12.3125 11.6875 C-11.58143814 6.75283244 -8.70444471 3.73145854 -4.8125 0.8125 C-2.3125 -0.3125 -2.3125 -0.3125 0 0 Z " fill="#473DDC" transform="translate(46.3125,5.3125)"/>
<path d="M0 0 C2.97 0.33 5.94 0.66 9 1 C9.33 2.98 9.66 4.96 10 7 C6.7 7 3.4 7 0 7 C0 4.69 0 2.38 0 0 Z " fill="#1307EA" transform="translate(67,136)"/>
<path d="M0 0 C7.15801225 5.82628904 13.52591766 12.4382985 20 19 C19.34 19.66 18.68 20.32 18 21 C15.17526976 18.26232877 12.36747908 15.5078931 9.5625 12.75 C8.76005859 11.97269531 7.95761719 11.19539063 7.13085938 10.39453125 C5.98520508 9.26337891 5.98520508 9.26337891 4.81640625 8.109375 C4.10943604 7.41811523 3.40246582 6.72685547 2.67407227 6.01464844 C0.95453054 3.94528015 0.39443516 2.6295677 0 0 Z " fill="#5147D7" transform="translate(159,21)"/>
<path d="M0 0 C6.75 1.625 6.75 1.625 9 5 C8.01 5 7.02 5 6 5 C6 4.34 6 3.68 6 3 C5.34 3.66 4.68 4.32 4 5 C4.33 5.66 4.66 6.32 5 7 C4.71887936 9.00800456 4.38932033 11.01014051 4 13 C3.34 13 2.68 13 2 13 C1.566875 11.63875 1.566875 11.63875 1.125 10.25 C0.23468224 7.67797092 -0.71494413 5.38653234 -2 3 C-1.34 2.01 -0.68 1.02 0 0 Z " fill="#1C10E8" transform="translate(174,40)"/>
<path d="M0 0 C0.33 0 0.66 0 1 0 C2.44767442 8.98255814 2.44767442 8.98255814 0.625 13.125 C0.08875 13.74375 -0.4475 14.3625 -1 15 C-1.33 15 -1.66 15 -2 15 C-2 13.35 -2 11.7 -2 10 C-2.66 10 -3.32 10 -4 10 C-3.52449439 8.51965236 -3.04448784 7.04074979 -2.5625 5.5625 C-2.29566406 4.73878906 -2.02882812 3.91507813 -1.75390625 3.06640625 C-1 1 -1 1 0 0 Z " fill="#2317DD" transform="translate(190,198)"/>
<path d="M0 0 C4.52615993 3.67832017 8.39424999 7.41086363 12 12 C11.01 12 10.02 12 9 12 C8.54625 11.525625 8.0925 11.05125 7.625 10.5625 C5.53633317 8.55416651 3.8216552 8.38130476 1 8 C0.03601353 5.1080406 0 3.0005625 0 0 Z " fill="#3026E2" transform="translate(147,9)"/>
<path d="M0 0 C0.33 0.66 0.66 1.32 1 2 C4.3 2 7.6 2 11 2 C9.02 2.99 9.02 2.99 7 4 C5.29503463 5.62746694 3.62102968 7.28891311 2 9 C0 6 0 6 0 4 C-0.66 4 -1.32 4 -2 4 C-2 3.34 -2 2.68 -2 2 C-1.34 2 -0.68 2 0 2 C0 1.34 0 0.68 0 0 Z " fill="#2B25E3" transform="translate(40,12)"/>
<path d="M0 0 C2.33944736 0.28730055 4.6739143 0.61936779 7 1 C6.67 2.65 6.34 4.3 6 6 C4.35 6.33 2.7 6.66 1 7 C0.34 5.02 -0.32 3.04 -1 1 C-0.67 0.67 -0.34 0.34 0 0 Z " fill="#1408EE" transform="translate(67,174)"/>
<path d="M0 0 C2.375 0.25 2.375 0.25 5 1 C6.3125 3.0625 6.3125 3.0625 7 5 C8.65 4.67 10.3 4.34 12 4 C12 5.32 12 6.64 12 8 C6.38074374 7.59862455 3.91343237 5.82025541 0 2 C0 1.34 0 0.68 0 0 Z " fill="#5147E1" transform="translate(36,212)"/>
<path d="M0 0 C0.33 0 0.66 0 1 0 C1.66 2.31 2.32 4.62 3 7 C9.27 7.33 15.54 7.66 22 8 C22 8.33 22 8.66 22 9 C20.95199219 9.06058594 19.90398437 9.12117188 18.82421875 9.18359375 C17.44529952 9.26801738 16.06639395 9.35266447 14.6875 9.4375 C13.65206055 9.49647461 13.65206055 9.49647461 12.59570312 9.55664062 C9.52838465 9.74927415 6.93031848 10.02322717 4 11 C1.8125 10.0625 1.8125 10.0625 0 8 C-0.35247494 5.24527279 -0.18331455 2.7955469 0 0 Z " fill="#2419D0" transform="translate(136,51)"/>
<path d="M0 0 C2.375 -0.125 2.375 -0.125 5 0 C5.66 0.66 6.32 1.32 7 2 C6.625 5.125 6.625 5.125 6 8 C3.03 7.505 3.03 7.505 0 7 C1.32 6.67 2.64 6.34 4 6 C3.01 5.67 2.02 5.34 1 5 C1 4.01 1 3.02 1 2 C1.99 1.67 2.98 1.34 4 1 C2.68 0.67 1.36 0.34 0 0 Z " fill="#3530D7" transform="translate(153,99)"/>
<path d="M0 0 C2.475 0.495 2.475 0.495 5 1 C5 1.66 5 2.32 5 3 C5.66 3.33 6.32 3.66 7 4 C7.625 6.5625 7.625 6.5625 8 9 C6.35 9.33 4.7 9.66 3 10 C3.33 9.34 3.66 8.68 4 8 C3.25156841 4.42215347 3.25156841 4.42215347 2 1 C1.34 0.67 0.68 0.34 0 0 Z " fill="#3027EC" transform="translate(174,210)"/>
<path d="M0 0 C0.99 0.33 1.98 0.66 3 1 C4.31236443 5.4143167 4.31236443 5.4143167 3 7.875 C-0.10259257 9.62020832 -2.6273707 8.69997967 -6 8 C-6 7.67 -6 7.34 -6 7 C-3.69 7 -1.38 7 1 7 C0.67 4.69 0.34 2.38 0 0 Z " fill="#413AD4" transform="translate(156,136)"/>
<path d="M0 0 C1.17539996 0.92652701 2.34010577 1.86663387 3.5 2.8125 C4.1496875 3.33457031 4.799375 3.85664062 5.46875 4.39453125 C7 6 7 6 7 9 C0.70535714 4.17857143 0.70535714 4.17857143 0 0 Z " fill="#564ED7" transform="translate(183,45)"/>
<path d="M0 0 C1.17539996 0.92652701 2.34010577 1.86663387 3.5 2.8125 C4.1496875 3.33457031 4.799375 3.85664063 5.46875 4.39453125 C7 6 7 6 7 9 C0.70535714 4.17857143 0.70535714 4.17857143 0 0 Z " fill="#554ED7" transform="translate(151,13)"/>
<path d="M0 0 C0.33 0 0.66 0 1 0 C1.33 3.3 1.66 6.6 2 10 C0.35 8.35 -1.3 6.7 -3 5 C-2.03114628 3.31503702 -1.03013277 1.64821244 0 0 Z " fill="#2015EE" transform="translate(190,198)"/>
<path d="M0 0 C1.65 0 3.3 0 5 0 C4.75 1.875 4.75 1.875 4 4 C1.9375 5.25 1.9375 5.25 0 6 C0.185625 5.38125 0.37125 4.7625 0.5625 4.125 C1.23686176 1.95839822 1.23686176 1.95839822 0 0 Z " fill="#382EDC" transform="translate(183,212)"/>
<path d="M0 0 C0.99 0.33 1.98 0.66 3 1 C2.67 2.98 2.34 4.96 2 7 C1.34 7 0.68 7 0 7 C0 4.69 0 2.38 0 0 Z " fill="#5550D2" transform="translate(157,175)"/>
<path d="M0 0 C0.66 1.32 1.32 2.64 2 4 C0.625 5.5 0.625 5.5 -1 7 C-1.66 7 -2.32 7 -3 7 C-2.38722388 4.03824877 -1.74627478 2.61941217 0 0 Z " fill="#554CE2" transform="translate(37,10)"/>
<path d="M0 0 C0.33 1.32 0.66 2.64 1 4 C-1.97 3.505 -1.97 3.505 -5 3 C-5 2.34 -5 1.68 -5 1 C-3.35 0.67 -1.7 0.34 0 0 Z " fill="#4840DD" transform="translate(47,216)"/>
<path d="M0 0 C0.763125 0.61875 1.52625 1.2375 2.3125 1.875 C4.99625809 4.05597052 4.99625809 4.05597052 8 6 C5.125 6.125 5.125 6.125 2 6 C1.34 5.34 0.68 4.68 0 4 C0 2.68 0 1.36 0 0 Z " fill="#6A65E1" transform="translate(43,205)"/>
</svg>
