<?xml version="1.0" encoding="UTF-8"?>
<svg version="1.1" xmlns="http://www.w3.org/2000/svg" width="93" height="96">
<path d="M0 0 C30.69 0 61.38 0 93 0 C93 31.68 93 63.36 93 96 C62.31 96 31.62 96 0 96 C0 64.32 0 32.64 0 0 Z " fill="#6C63F1" transform="translate(0,0)"/>
<path d="M0 0 C1.96743164 -0.00773438 1.96743164 -0.00773438 3.97460938 -0.015625 C4.65048096 -0.00724609 5.32635254 0.00113281 6.02270508 0.00976562 C8.08859155 0.03123699 10.15101584 0.00990575 12.21679688 -0.015625 C14.18229492 -0.00789062 14.18229492 -0.00789062 16.1875 0 C17.37996338 0.00451172 18.57242676 0.00902344 19.80102539 0.01367188 C23.72388338 0.64299151 25.37625916 1.5816461 28.02734375 4.53125 C28.64257812 7.36865234 28.64257812 7.36865234 28.62109375 10.6171875 C28.61851563 11.79539062 28.6159375 12.97359375 28.61328125 14.1875 C28.58492188 15.4146875 28.5565625 16.641875 28.52734375 17.90625 C28.53121094 19.73542969 28.53121094 19.73542969 28.53515625 21.6015625 C28.46785339 27.76650456 28.31020398 32.1442681 25.02734375 37.53125 C22.33984375 38.90625 22.33984375 38.90625 20.02734375 39.53125 C20.02734375 41.18125 20.02734375 42.83125 20.02734375 44.53125 C21.67734375 44.53125 23.32734375 44.53125 25.02734375 44.53125 C25.02734375 45.52125 25.02734375 46.51125 25.02734375 47.53125 C23.37734375 47.53125 21.72734375 47.53125 20.02734375 47.53125 C20.02734375 49.18125 20.02734375 50.83125 20.02734375 52.53125 C23.32734375 52.53125 26.62734375 52.53125 30.02734375 52.53125 C30.02734375 53.52125 30.02734375 54.51125 30.02734375 55.53125 C27.38734375 55.86125 24.74734375 56.19125 22.02734375 56.53125 C21.69734375 57.52125 21.36734375 58.51125 21.02734375 59.53125 C22.01734375 59.53125 23.00734375 59.53125 24.02734375 59.53125 C24.02734375 60.52125 24.02734375 61.51125 24.02734375 62.53125 C20.04596545 63.8583761 16.17689148 63.60040913 12.02734375 63.53125 C12.04796875 64.665625 12.06859375 65.8 12.08984375 66.96875 C12.02734375 70.53125 12.02734375 70.53125 11.02734375 71.53125 C9.4643585 71.66434679 7.89556928 71.73010756 6.32739258 71.76831055 C5.32577591 71.79471115 4.32415924 71.82111176 3.29219055 71.84831238 C2.20061142 71.87129898 1.10903229 71.89428558 -0.015625 71.91796875 C-1.1319783 71.94349319 -2.2483316 71.96901764 -3.39851379 71.99531555 C-5.76830486 72.04744738 -8.13815705 72.09685902 -10.50805664 72.14379883 C-14.12746814 72.21807915 -17.74622442 72.30882323 -21.36523438 72.40039062 C-23.66534336 72.44893304 -25.96547338 72.49649071 -28.265625 72.54296875 C-29.88781197 72.58655769 -29.88781197 72.58655769 -31.54277039 72.63102722 C-36.77098364 72.71810157 -41.08907474 72.68263297 -45.97265625 70.53125 C-45.97265625 69.54125 -45.97265625 68.55125 -45.97265625 67.53125 C-44.98265625 67.53125 -43.99265625 67.53125 -42.97265625 67.53125 C-42.97265625 66.21125 -42.97265625 64.89125 -42.97265625 63.53125 C-43.96265625 63.53125 -44.95265625 63.53125 -45.97265625 63.53125 C-45.97265625 59.53125 -45.97265625 59.53125 -43.97265625 57.28125 C-43.31265625 56.70375 -42.65265625 56.12625 -41.97265625 55.53125 C-43.29265625 55.53125 -44.61265625 55.53125 -45.97265625 55.53125 C-45.97265625 54.54125 -45.97265625 53.55125 -45.97265625 52.53125 C-43.99265625 52.03625 -43.99265625 52.03625 -41.97265625 51.53125 C-41.64265625 50.21125 -41.31265625 48.89125 -40.97265625 47.53125 C-42.62265625 47.53125 -44.27265625 47.53125 -45.97265625 47.53125 C-45.97265625 46.54125 -45.97265625 45.55125 -45.97265625 44.53125 C-44.32265625 44.53125 -42.67265625 44.53125 -40.97265625 44.53125 C-41.30265625 43.21125 -41.63265625 41.89125 -41.97265625 40.53125 C-43.29265625 40.20125 -44.61265625 39.87125 -45.97265625 39.53125 C-45.97265625 38.54125 -45.97265625 37.55125 -45.97265625 36.53125 C-44.32265625 36.53125 -42.67265625 36.53125 -40.97265625 36.53125 C-40.97265625 35.21125 -40.97265625 33.89125 -40.97265625 32.53125 C-42.62265625 32.53125 -44.27265625 32.53125 -45.97265625 32.53125 C-45.97265625 31.54125 -45.97265625 30.55125 -45.97265625 29.53125 C-44.65265625 29.20125 -43.33265625 28.87125 -41.97265625 28.53125 C-41.64265625 27.21125 -41.31265625 25.89125 -40.97265625 24.53125 C-42.62265625 24.53125 -44.27265625 24.53125 -45.97265625 24.53125 C-45.97265625 23.54125 -45.97265625 22.55125 -45.97265625 21.53125 C-44.32265625 21.53125 -42.67265625 21.53125 -40.97265625 21.53125 C-41.30265625 20.21125 -41.63265625 18.89125 -41.97265625 17.53125 C-43.29265625 17.20125 -44.61265625 16.87125 -45.97265625 16.53125 C-45.97265625 15.54125 -45.97265625 14.55125 -45.97265625 13.53125 C-44.32265625 13.53125 -42.67265625 13.53125 -40.97265625 13.53125 C-40.97265625 11.88125 -40.97265625 10.23125 -40.97265625 8.53125 C-39.98265625 8.53125 -38.99265625 8.53125 -37.97265625 8.53125 C-37.97265625 10.18125 -37.97265625 11.83125 -37.97265625 13.53125 C-36.32265625 13.53125 -34.67265625 13.53125 -32.97265625 13.53125 C-32.64265625 11.88125 -32.31265625 10.23125 -31.97265625 8.53125 C-30.98265625 8.86125 -29.99265625 9.19125 -28.97265625 9.53125 C-28.97265625 10.85125 -28.97265625 12.17125 -28.97265625 13.53125 C-27.32265625 13.53125 -25.67265625 13.53125 -23.97265625 13.53125 C-23.97265625 11.88125 -23.97265625 10.23125 -23.97265625 8.53125 C-22.98265625 8.53125 -21.99265625 8.53125 -20.97265625 8.53125 C-20.97265625 10.18125 -20.97265625 11.83125 -20.97265625 13.53125 C-18.5434576 13.66565778 -18.5434576 13.66565778 -15.97265625 12.53125 C-15.07662078 10.59279702 -14.5337536 8.7128633 -14.0390625 6.63671875 C-11.19764817 1.02674687 -5.78375903 0.02186234 0 0 Z " fill="#241F40" transform="translate(52.97265625,10.46875)"/>
<path d="M0 0 C30.69 0 61.38 0 93 0 C93 31.68 93 63.36 93 96 C62.31 96 31.62 96 0 96 C0 64.32 0 32.64 0 0 Z M4.58139038 7.62452698 C2.85210513 11.31568116 2.49887412 13.66461077 2.49829102 17.72045898 C2.48891006 19.03880234 2.47952911 20.35714569 2.46986389 21.71543884 C2.48034393 23.14233045 2.49171318 24.56921576 2.50390625 25.99609375 C2.5037511 27.4729062 2.50225948 28.94971906 2.49949646 30.42652893 C2.4981151 33.51573781 2.51062407 36.60448094 2.53344727 39.69360352 C2.56180664 43.63891075 2.55909806 47.58344331 2.54635715 51.52880764 C2.53937663 54.57703683 2.54721657 57.62508935 2.55961418 60.67329597 C2.56410745 62.12724185 2.56448419 63.58120685 2.56054878 65.03515434 C2.39907157 75.43692797 2.39907157 75.43692797 6 85 C8.84607875 87.84607875 10.76965683 87.26639293 14.75708008 87.29052734 C15.45159775 87.29724457 16.14611542 87.30396179 16.86167908 87.31088257 C19.16436871 87.32992486 21.46676771 87.33379019 23.76953125 87.3359375 C25.36895366 87.3423624 26.96837488 87.34909053 28.5677948 87.35610962 C31.92453739 87.36809886 35.28117696 87.37178889 38.63793945 87.37060547 C42.93558773 87.37040248 47.23257324 87.39767616 51.53006458 87.43214989 C54.8355359 87.45441192 58.14084773 87.45844319 61.44638634 87.45738602 C63.03040534 87.45974413 64.61442859 87.46857957 66.19837379 87.48405075 C68.41762936 87.50369263 70.63545676 87.49788075 72.85473633 87.48583984 C74.11667313 87.48868988 75.37860992 87.49153992 76.67878723 87.49447632 C80.58383294 86.91307646 82.22251365 85.74954504 85 83 C86.30475618 80.39048764 86.11301572 78.47298715 86.09765625 75.5546875 C86.09443359 74.47832031 86.09121094 73.40195313 86.08789062 72.29296875 C86.07951172 71.16503906 86.07113281 70.03710938 86.0625 68.875 C86.05798828 67.73933594 86.05347656 66.60367188 86.04882812 65.43359375 C86.03701615 62.62234362 86.02054507 59.8111977 86 57 C84.35 57.33 82.7 57.66 81 58 C81 57.01 81 56.02 81 55 C82.65 55.33 84.3 55.66 86 56 C86.2176262 49.9865041 86.41437014 43.97281707 86.59204102 37.95800781 C86.65535344 35.91322708 86.7243053 33.86861269 86.79907227 31.82421875 C86.90574029 28.88046757 86.99191361 25.93670837 87.07421875 22.9921875 C87.11157639 22.0825827 87.14893402 21.17297791 87.18742371 20.23580933 C87.30957531 15.0448067 86.99926041 11.45646673 84 7 C80.29151497 4.52767665 78.36123729 4.72443172 73.92993164 4.67773438 C73.21415451 4.66780457 72.49837738 4.65787476 71.76091003 4.64764404 C69.39395298 4.61844229 67.0272638 4.60480592 64.66015625 4.59375 C63.01492811 4.58224542 61.36970004 4.57072997 59.72447205 4.5592041 C56.27536775 4.53819722 52.82635653 4.52650283 49.37719727 4.51953125 C44.95702476 4.50855122 40.5380813 4.46047295 36.11829472 4.40358734 C32.72021379 4.36634716 29.32242967 4.35592432 25.92416191 4.3528595 C24.29461367 4.34680429 22.66507079 4.33073918 21.03572273 4.30448914 C18.75601593 4.27037698 16.4793212 4.27411791 14.19946289 4.28710938 C12.9027919 4.27981812 11.60612091 4.27252686 10.27015686 4.26501465 C6.79820499 4.71964625 6.79820499 4.71964625 4.58139038 7.62452698 Z " fill="#5A45E2" transform="translate(0,0)"/>
<path d="M0 0 C0.99 0.33 1.98 0.66 3 1 C3 2.32 3 3.64 3 5 C4.65 5 6.3 5 8 5 C8 3.35 8 1.7 8 0 C8.99 0 9.98 0 11 0 C11 1.65 11 3.3 11 5 C12.32 5.33 13.64 5.66 15 6 C14.01 6.495 14.01 6.495 13 7 C14.32 7.99 15.64 8.98 17 10 C17.99 9.34 18.98 8.68 20 8 C22.33746522 8.30300475 24.67085177 8.63858045 27 9 C29.81237541 8.64025105 29.81237541 8.64025105 32 8 C32 13.33333333 32 18.66666667 32 24 C32.3062434 25.33981486 32.63451555 26.67511887 33 28 C31.68 28.33 30.36 28.66 29 29 C29 29.66 29 30.32 29 31 C29.99 31 30.98 31 32 31 C32 32.65 32 34.3 32 36 C30.35 36 28.7 36 27 36 C27 35.01 27 34.02 27 33 C26.34 33 25.68 33 25 33 C23.16308743 36.78187881 22.84162374 38.94568308 24 43 C24.66 43 25.32 43 26 43 C26.66 41.68 27.32 40.36 28 39 C29.32 39 30.64 39 32 39 C32 43.29 32 47.58 32 52 C30.35 51.67 28.7 51.34 27 51 C27 50.01 27 49.02 27 48 C26.01 48 25.02 48 24 48 C23.67 49.32 23.34 50.64 23 52 C21.68 51.67 20.36 51.34 19 51 C19.33 49.35 19.66 47.7 20 46 C20.66 46 21.32 46 22 46 C22 45.34 22 44.68 22 44 C20.35 44 18.7 44 17 44 C16.10869587 46.6739124 15.52268466 49.23723823 15 52 C13.68 51.67 12.36 51.34 11 51 C11.185625 50.030625 11.37125 49.06125 11.5625 48.0625 C11.706875 47.051875 11.85125 46.04125 12 45 C11.505 44.505 11.505 44.505 11 44 C10.95936168 42.33382885 10.957279 40.66611905 11 39 C12.32 38.34 13.64 37.68 15 37 C13.68 36.67 12.36 36.34 11 36 C11.33 34.35 11.66 32.7 12 31 C12.66 31 13.32 31 14 31 C14 30.34 14 29.68 14 29 C13.01 28.67 12.02 28.34 11 28 C11.185625 27.030625 11.37125 26.06125 11.5625 25.0625 C11.706875 24.051875 11.85125 23.04125 12 22 C11.67 21.67 11.34 21.34 11 21 C10.8125 18.5625 10.8125 18.5625 11 16 C11.66 15.34 12.32 14.68 13 14 C11.68 13.34 10.36 12.68 9 12 C8.01 12.99 7.02 13.98 6 15 C6.66 15.66 7.32 16.32 8 17 C7.625 19 7.625 19 7 21 C6.91915479 23.10610934 6.91915479 23.10610934 7.625 25.5 C7.74875 26.325 7.8725 27.15 8 28 C7.34 28.66 6.68 29.32 6 30 C6.66 30.66 7.32 31.32 8 32 C8 33.32 8 34.64 8 36 C5.625 36.125 5.625 36.125 3 36 C2.34 35.34 1.68 34.68 1 34 C0.34 34.66 -0.32 35.32 -1 36 C-3.625 36.125 -3.625 36.125 -6 36 C-5.67 34.35 -5.34 32.7 -5 31 C-4.01 31 -3.02 31 -2 31 C-2 30.34 -2 29.68 -2 29 C-3.32 28.67 -4.64 28.34 -6 28 C-5.67 26.35 -5.34 24.7 -5 23 C-4.01 22.67 -3.02 22.34 -2 22 C-3.32 21.34 -4.64 20.68 -6 20 C-5.814375 19.113125 -5.62875 18.22625 -5.4375 17.3125 C-5.01488496 14.11270038 -5.32957 12.10073876 -6 9 C-5.67 8.01 -5.34 7.02 -5 6 C-3.68 6 -2.36 6 -1 6 C-1.020625 5.195625 -1.04125 4.39125 -1.0625 3.5625 C-1 1 -1 1 0 0 Z " fill="#322E4A" transform="translate(21,19)"/>
<path d="M0 0 C0.99 0 1.98 0 3 0 C3 1.65 3 3.3 3 5 C4.65 5 6.3 5 8 5 C7.67 5.99 7.34 6.98 7 8 C6.01 8.33 5.02 8.66 4 9 C4 10.32 4 11.64 4 13 C4.99 13.66 5.98 14.32 7 15 C6.01 15 5.02 15 4 15 C4 16.65 4 18.3 4 20 C5.32 20.66 6.64 21.32 8 22 C6.02 22.99 6.02 22.99 4 24 C4 25.32 4 26.64 4 28 C4.99 28.33 5.98 28.66 7 29 C7 29.66 7 30.32 7 31 C6.01 31.33 5.02 31.66 4 32 C3.26676204 34.01508358 3.26676204 34.01508358 3 36 C7.07964281 34.69844994 7.07964281 34.69844994 11 33 C11.33 33.66 11.66 34.32 12 35 C14.01669827 36.13350534 14.01669827 36.13350534 16 37 C16 37.66 16 38.32 16 39 C16.20625 39.66 16.4125 40.32 16.625 41 C16.74875 41.66 16.8725 42.32 17 43 C16.34 43.66 15.68 44.32 15 45 C15.66 45.99 16.32 46.98 17 48 C16.45945946 52.54054054 16.45945946 52.54054054 15 54 C15.99 54.763125 16.98 55.52625 18 56.3125 C19.6875 57.61328125 19.6875 57.61328125 21 59 C21 59.99 21 60.98 21 62 C31.23 62 41.46 62 52 62 C52 62.33 52 62.66 52 63 C44.84700812 63.19402121 37.69374075 63.37132701 30.54003906 63.53710938 C28.10732686 63.5954478 25.67470271 63.65758872 23.2421875 63.72363281 C19.7423506 63.81799116 16.24242322 63.89859542 12.7421875 63.9765625 C11.65759247 64.00875885 10.57299744 64.0409552 9.45553589 64.0741272 C4.21534839 64.17769721 -0.10553538 64.16301378 -5 62 C-5 61.01 -5 60.02 -5 59 C-4.01 59 -3.02 59 -2 59 C-2 57.68 -2 56.36 -2 55 C-2.99 55 -3.98 55 -5 55 C-5 51 -5 51 -3 48.75 C-2.34 48.1725 -1.68 47.595 -1 47 C-2.32 47 -3.64 47 -5 47 C-5 46.01 -5 45.02 -5 44 C-3.02 43.505 -3.02 43.505 -1 43 C-0.67 41.68 -0.34 40.36 0 39 C-1.65 39 -3.3 39 -5 39 C-5 38.01 -5 37.02 -5 36 C-3.35 36 -1.7 36 0 36 C-0.33 34.68 -0.66 33.36 -1 32 C-2.32 31.67 -3.64 31.34 -5 31 C-5 30.01 -5 29.02 -5 28 C-3.35 28 -1.7 28 0 28 C0 26.68 0 25.36 0 24 C-1.65 24 -3.3 24 -5 24 C-5 23.01 -5 22.02 -5 21 C-3.68 20.67 -2.36 20.34 -1 20 C-0.67 18.68 -0.34 17.36 0 16 C-1.65 16 -3.3 16 -5 16 C-5 15.01 -5 14.02 -5 13 C-3.35 13 -1.7 13 0 13 C-0.33 11.68 -0.66 10.36 -1 9 C-2.32 8.67 -3.64 8.34 -5 8 C-5 7.01 -5 6.02 -5 5 C-3.35 5 -1.7 5 0 5 C0 3.35 0 1.7 0 0 Z " fill="#2A1F55" transform="translate(12,19)"/>
<path d="M0 0 C4.29 0 8.58 0 13 0 C13 31.68 13 63.36 13 96 C-17.69 96 -48.38 96 -80 96 C-80 92.37 -80 88.74 -80 85 C-78.50260417 86.26953125 -77.00520833 87.5390625 -75.5078125 88.80859375 C-72.14758066 91.46369922 -69.37969356 91.14445801 -65.16699219 91.17700195 C-64.46432724 91.18357315 -63.76166229 91.19014435 -63.03770447 91.19691467 C-60.70742692 91.21665808 -58.37721391 91.22831368 -56.046875 91.23828125 C-55.250821 91.24235678 -54.454767 91.2464323 -53.63459015 91.25063133 C-49.41964476 91.27149841 -45.20473198 91.28579627 -40.98974609 91.29516602 C-36.64067207 91.30622049 -32.2921111 91.340607 -27.94321823 91.38033772 C-24.59569361 91.40651534 -21.24829088 91.41485894 -17.90067291 91.41844749 C-16.29793083 91.42331201 -14.69519414 91.43492225 -13.09255219 91.45348549 C-10.8448202 91.47789835 -8.59841059 91.47690858 -6.35058594 91.4699707 C-5.07310486 91.47583694 -3.79562378 91.48170319 -2.47943115 91.48774719 C1.7319871 90.89738994 3.78420159 89.76496286 7 87 C9.89942518 82.6016276 10.3811617 79.1071918 10.40405273 73.89648438 C10.41434761 72.87087151 10.41434761 72.87087151 10.42485046 71.82453918 C10.44304358 69.58072722 10.43929253 67.33761936 10.43359375 65.09375 C10.43815871 63.52485936 10.44346522 61.95597072 10.44947815 60.38708496 C10.45839415 57.10546727 10.45600295 53.82409315 10.44604492 50.54248047 C10.43454853 46.3458922 10.45478389 42.15014456 10.48396206 37.95366669 C10.50234297 34.71590881 10.50202804 31.47835179 10.49632454 28.24055481 C10.4961716 26.69365763 10.50219331 25.1467466 10.51461601 23.59989929 C10.52956363 21.43390724 10.51882446 19.26946067 10.50170898 17.10351562 C10.50154282 15.87362915 10.50137665 14.64374268 10.50120544 13.37658691 C9.89831859 9.31497931 8.57354408 7.16776155 6 4 C2.89985071 2.11431306 2.89985071 2.11431306 0 1 C0 0.67 0 0.34 0 0 Z " fill="#17152C" transform="translate(80,0)"/>
<path d="M0 0 C0.99 0.33 1.98 0.66 3 1 C3 2.32 3 3.64 3 5 C4.65 5 6.3 5 8 5 C8 3.35 8 1.7 8 0 C8.99 0 9.98 0 11 0 C11 1.65 11 3.3 11 5 C12.32 5.33 13.64 5.66 15 6 C14.01 6.495 14.01 6.495 13 7 C13.99 7.66 14.98 8.32 16 9 C16 10.32 16 11.64 16 13 C13.33333333 13 10.66666667 13 8 13 C7.34 13.66 6.68 14.32 6 15 C6.66 15.66 7.32 16.32 8 17 C7.625 19 7.625 19 7 21 C6.91915479 23.10610934 6.91915479 23.10610934 7.625 25.5 C7.74875 26.325 7.8725 27.15 8 28 C7.34 28.66 6.68 29.32 6 30 C6.66 30.66 7.32 31.32 8 32 C8 33.32 8 34.64 8 36 C5.625 36.125 5.625 36.125 3 36 C2.34 35.34 1.68 34.68 1 34 C0.34 34.66 -0.32 35.32 -1 36 C-3.625 36.125 -3.625 36.125 -6 36 C-5.67 34.35 -5.34 32.7 -5 31 C-4.01 31 -3.02 31 -2 31 C-2 30.34 -2 29.68 -2 29 C-3.32 28.67 -4.64 28.34 -6 28 C-5.67 26.35 -5.34 24.7 -5 23 C-4.01 22.67 -3.02 22.34 -2 22 C-3.32 21.34 -4.64 20.68 -6 20 C-5.814375 19.113125 -5.62875 18.22625 -5.4375 17.3125 C-5.01488496 14.11270038 -5.32957 12.10073876 -6 9 C-5.67 8.01 -5.34 7.02 -5 6 C-3.68 6 -2.36 6 -1 6 C-1.020625 5.195625 -1.04125 4.39125 -1.0625 3.5625 C-1 1 -1 1 0 0 Z " fill="#223461" transform="translate(21,19)"/>
<path d="M0 0 C4.25414623 -0.02465622 8.50825498 -0.04283899 12.76245117 -0.05493164 C14.21070073 -0.05997101 15.65894517 -0.06680253 17.10717773 -0.07543945 C19.18474588 -0.08752247 21.26224697 -0.09323211 23.33984375 -0.09765625 C24.59144287 -0.10289307 25.84304199 -0.10812988 27.13256836 -0.11352539 C30 0 30 0 31 1 C31.09971786 2.91458282 31.13080589 4.83282317 31.1328125 6.75 C31.13474609 8.49796875 31.13474609 8.49796875 31.13671875 10.28125 C31.13285156 11.5084375 31.12898438 12.735625 31.125 14 C31.13080078 15.84078125 31.13080078 15.84078125 31.13671875 17.71875 C31.13542969 18.8840625 31.13414063 20.049375 31.1328125 21.25 C31.13168457 22.32765625 31.13055664 23.4053125 31.12939453 24.515625 C31 27 31 27 30 28 C27.5 28.125 27.5 28.125 25 28 C22.94077598 25.94077598 23.58572421 21.78291876 23.4375 18.9375 C23.39431641 18.17888672 23.35113281 17.42027344 23.30664062 16.63867188 C23.20026367 14.75934562 23.09960066 12.87969756 23 11 C22.20335937 11.77537109 22.20335937 11.77537109 21.390625 12.56640625 C20.33101562 13.55447266 20.33101562 13.55447266 19.25 14.5625 C18.55390625 15.22378906 17.8578125 15.88507812 17.140625 16.56640625 C15 18 15 18 12.734375 17.71484375 C12.16203125 17.47894531 11.5896875 17.24304688 11 17 C11.1534035 14.31543866 11.43757685 12.5505382 13.39794922 10.6315918 C14.93196615 9.4210612 16.46598307 8.2105306 18 7 C16.79601562 6.93941406 15.59203125 6.87882812 14.3515625 6.81640625 C12.77602923 6.73200268 11.20050904 6.64735459 9.625 6.5625 C8.8309375 6.52318359 8.036875 6.48386719 7.21875 6.44335938 C1.2265625 6.11328125 1.2265625 6.11328125 -1 5 C-0.67 3.35 -0.34 1.7 0 0 Z " fill="#F4F4F5" transform="translate(46,15)"/>
<path d="M0 0 C0.33 0 0.66 0 1 0 C1 23.43 1 46.86 1 71 C0.34 70.01 -0.32 69.02 -1 68 C-1.99 68.99 -2.98 69.98 -4 71 C-4.33 63.41 -4.66 55.82 -5 48 C-6.32 48 -7.64 48 -9 48 C-9 47.01 -9 46.02 -9 45 C-7.68 45 -6.36 45 -5 45 C-4.505 36.09 -4.505 36.09 -4 27 C-3.01 26.67 -2.02 26.34 -1 26 C-0.67 17.42 -0.34 8.84 0 0 Z " fill="#7621CE" transform="translate(90,10)"/>
<path d="M0 0 C0.99 0 1.98 0 3 0 C3 1.65 3 3.3 3 5 C4.65 5 6.3 5 8 5 C7.67 5.99 7.34 6.98 7 8 C6.01 8.33 5.02 8.66 4 9 C4 10.32 4 11.64 4 13 C4.99 13.66 5.98 14.32 7 15 C6.01 15 5.02 15 4 15 C4 16.65 4 18.3 4 20 C5.32 20.66 6.64 21.32 8 22 C6.02 22.99 6.02 22.99 4 24 C4 25.32 4 26.64 4 28 C4.99 28.33 5.98 28.66 7 29 C7 29.66 7 30.32 7 31 C6.01 31.33 5.02 31.66 4 32 C3.26676204 34.01508358 3.26676204 34.01508358 3 36 C4.32 36.33 5.64 36.66 7 37 C7 37.66 7 38.32 7 39 C5.515 39.495 5.515 39.495 4 40 C3.34 40.99 2.68 41.98 2 43 C1.34 42.01 0.68 41.02 0 40 C-2.56282742 39.27034634 -2.56282742 39.27034634 -5 39 C-5 38.01 -5 37.02 -5 36 C-3.35 36 -1.7 36 0 36 C-0.33 34.68 -0.66 33.36 -1 32 C-2.32 31.67 -3.64 31.34 -5 31 C-5 30.01 -5 29.02 -5 28 C-3.35 28 -1.7 28 0 28 C0 26.68 0 25.36 0 24 C-1.65 24 -3.3 24 -5 24 C-5 23.01 -5 22.02 -5 21 C-3.68 20.67 -2.36 20.34 -1 20 C-0.67 18.68 -0.34 17.36 0 16 C-1.65 16 -3.3 16 -5 16 C-5 15.01 -5 14.02 -5 13 C-3.35 13 -1.7 13 0 13 C-0.33 11.68 -0.66 10.36 -1 9 C-2.32 8.67 -3.64 8.34 -5 8 C-5 7.01 -5 6.02 -5 5 C-3.35 5 -1.7 5 0 5 C0 3.35 0 1.7 0 0 Z " fill="#1F2F5C" transform="translate(12,19)"/>
<path d="M0 0 C0 5.33333333 0 10.66666667 0 16 C0.3062434 17.33981486 0.63451555 18.67511887 1 20 C-0.32 20.33 -1.64 20.66 -3 21 C-3 21.66 -3 22.32 -3 23 C-2.01 23 -1.02 23 0 23 C0 24.65 0 26.3 0 28 C-1.65 28 -3.3 28 -5 28 C-5 27.01 -5 26.02 -5 25 C-5.66 25 -6.32 25 -7 25 C-7.33 25.66 -7.66 26.32 -8 27 C-8.33 25.35 -8.66 23.7 -9 22 C-9.99 21.67 -10.98 21.34 -12 21 C-11.01 20.67 -10.02 20.34 -9 20 C-8.26676204 17.98491642 -8.26676204 17.98491642 -8 16 C-9.65 16 -11.3 16 -13 16 C-13 16.99 -13 17.98 -13 19 C-13.66 19 -14.32 19 -15 19 C-15.66 17.35 -16.32 15.7 -17 14 C-14.42786866 12.38050989 -13.32330841 11.95591249 -10.25 12.375 C-9.5075 12.58125 -8.765 12.7875 -8 13 C-8.27034634 10.56282742 -8.27034634 10.56282742 -9 8 C-9.99 7.34 -10.98 6.68 -12 6 C-11.01 5.67 -10.02 5.34 -9 5 C-8.67 4.01 -8.34 3.02 -8 2 C-5.01540871 0.04457812 -3.73585209 0 0 0 Z " fill="#242147" transform="translate(53,27)"/>
<path d="M0 0 C0.886875 0.391875 1.77375 0.78375 2.6875 1.1875 C2.3575 2.1775 2.0275 3.1675 1.6875 4.1875 C0.6975 4.1875 -0.2925 4.1875 -1.3125 4.1875 C-0.73797254 8.11825644 -0.73797254 8.11825644 1.6875 11.1875 C0.6975 11.6825 0.6975 11.6825 -0.3125 12.1875 C-0.3125 13.5075 -0.3125 14.8275 -0.3125 16.1875 C0.3475 16.5175 1.0075 16.8475 1.6875 17.1875 C1.6875 17.8475 1.6875 18.5075 1.6875 19.1875 C1.0275 19.5175 0.3675 19.8475 -0.3125 20.1875 C-0.96463292 22.21213255 -0.96463292 22.21213255 -1.3125 24.1875 C0.3375 24.1875 1.9875 24.1875 3.6875 24.1875 C3.3575 24.8475 3.0275 25.5075 2.6875 26.1875 C1.6975 26.5175 0.7075 26.8475 -0.3125 27.1875 C-1.52132096 29.18766466 -1.52132096 29.18766466 -2.3125 31.1875 C-2.9725 31.1875 -3.6325 31.1875 -4.3125 31.1875 C-4.60125 30.56875 -4.89 29.95 -5.1875 29.3125 C-6.24970042 27.05424235 -6.24970042 27.05424235 -8.3125 25.1875 C-7.3225 24.8575 -6.3325 24.5275 -5.3125 24.1875 C-5.3125 22.8675 -5.3125 21.5475 -5.3125 20.1875 C-5.9725 19.5275 -6.6325 18.8675 -7.3125 18.1875 C-6.6525 17.5275 -5.9925 16.8675 -5.3125 16.1875 C-5.64221479 12.89035207 -5.9351839 11.5648161 -8.3125 9.1875 C-7.3225 8.8575 -6.3325 8.5275 -5.3125 8.1875 C-5.88594937 5.32025314 -6.1739515 4.3260485 -8.3125 2.1875 C-5.09279771 -0.27462528 -4.04623082 -0.99247171 0 0 Z " fill="#222344" transform="translate(33.3125,30.8125)"/>
<path d="M0 0 C0.8971875 0.309375 0.8971875 0.309375 1.8125 0.625 C1.626875 1.594375 1.44125 2.56375 1.25 3.5625 C1.105625 4.573125 0.96125 5.58375 0.8125 6.625 C1.1425 6.955 1.4725 7.285 1.8125 7.625 C1.85313832 9.29117115 1.855221 10.95888095 1.8125 12.625 C-0.4975 12.625 -2.8075 12.625 -5.1875 12.625 C-6.07880413 15.2989124 -6.66481534 17.86223823 -7.1875 20.625 C-8.5075 20.295 -9.8275 19.965 -11.1875 19.625 C-11.001875 18.655625 -10.81625 17.68625 -10.625 16.6875 C-10.480625 15.676875 -10.33625 14.66625 -10.1875 13.625 C-10.5175 13.295 -10.8475 12.965 -11.1875 12.625 C-11.5 10.25 -11.5 10.25 -11.1875 7.625 C-9.3125 6 -9.3125 6 -7.1875 4.625 C-6.5275 3.635 -5.8675 2.645 -5.1875 1.625 C-2.1875 -0.375 -2.1875 -0.375 0 0 Z " fill="#232652" transform="translate(43.1875,27.375)"/>
<path d="M0 0 C0.66 0.66 1.32 1.32 2 2 C3.31747324 2.69748583 4.64914193 3.36959957 6 4 C6 4.66 6 5.32 6 6 C6.20625 6.66 6.4125 7.32 6.625 8 C6.74875 8.66 6.8725 9.32 7 10 C6.34 10.66 5.68 11.32 5 12 C5.99 13.485 5.99 13.485 7 15 C6.625 17.1875 6.625 17.1875 6 19 C5.236875 18.835 4.47375 18.67 3.6875 18.5 C0.96403764 17.90854604 0.96403764 17.90854604 -2 18 C-2 16.68 -2 15.36 -2 14 C-3.32 13.67 -4.64 13.34 -6 13 C-6 12.34 -6 11.68 -6 11 C-4.68 11 -3.36 11 -2 11 C-2.27034634 8.56282742 -2.27034634 8.56282742 -3 6 C-3.99 5.34 -4.98 4.68 -6 4 C-5.195625 3.525625 -4.39125 3.05125 -3.5625 2.5625 C-1.15246512 1.23099846 -1.15246512 1.23099846 0 0 Z " fill="#24284F" transform="translate(22,52)"/>
<path d="M0 0 C1.32 0 2.64 0 4 0 C4 4.29 4 8.58 4 13 C2.35 12.67 0.7 12.34 -1 12 C-1 11.01 -1 10.02 -1 9 C-1.99 9 -2.98 9 -4 9 C-4.33 10.32 -4.66 11.64 -5 13 C-6.32 12.67 -7.64 12.34 -9 12 C-8.67 10.35 -8.34 8.7 -8 7 C-7.34 7 -6.68 7 -6 7 C-6 6.34 -6 5.68 -6 5 C-5.38125 4.9175 -4.7625 4.835 -4.125 4.75 C-1.81562433 4.18741541 -1.81562433 4.18741541 -0.75 1.9375 C-0.37875 0.9784375 -0.37875 0.9784375 0 0 Z " fill="#251B44" transform="translate(49,58)"/>
<path d="M0 0 C1.65 0 3.3 0 5 0 C4.814375 0.86625 4.62875 1.7325 4.4375 2.625 C3.99332067 6.05152628 4.28045508 8.64212371 5 12 C0.66666667 12 -3.66666667 12 -8 12 C-7.67 10.35 -7.34 8.7 -7 7 C-6.34 7 -5.68 7 -5 7 C-4.34 5.02 -3.68 3.04 -3 1 C-2.67 1.66 -2.34 2.32 -2 3 C-1.34 3 -0.68 3 0 3 C0 2.01 0 1.02 0 0 Z " fill="#292749" transform="translate(40,43)"/>
<path d="M0 0 C1.32 0 2.64 0 4 0 C4 4.33333333 4 8.66666667 4 13 C3.236875 12.835 2.47375 12.67 1.6875 12.5 C-2.15760484 11.78463166 -5.21800993 12.18227242 -9 13 C-7.68 11.35 -6.36 9.7 -5 8 C-6.32 8 -7.64 8 -9 8 C-9 7.01 -9 6.02 -9 5 C-8.38125 4.896875 -7.7625 4.79375 -7.125 4.6875 C-4.63473516 4.12474627 -4.63473516 4.12474627 -3 1 C-2.67 1.66 -2.34 2.32 -2 3 C-1.34 2.01 -0.68 1.02 0 0 Z " fill="#21285D" transform="translate(16,58)"/>
<path d="M0 0 C0.598125 0.165 1.19625 0.33 1.8125 0.5 C4.11344336 1.1114124 4.11344336 1.1114124 7 1 C7 2.32 7 3.64 7 5 C8.65 5 10.3 5 12 5 C12 5.99 12 6.98 12 8 C10.35 8 8.7 8 7 8 C6.67 9.32 6.34 10.64 6 12 C3.69 12.33 1.38 12.66 -1 13 C-1 8.50886589 -0.95234815 4.40461018 0 0 Z " fill="#291C45" transform="translate(66,50)"/>
<path d="M0 0 C1.98 0.99 3.96 1.98 6 3 C6 3.66 6 4.32 6 5 C5.01 5.33 4.02 5.66 3 6 C2.26676204 8.01508358 2.26676204 8.01508358 2 10 C3.32 10.33 4.64 10.66 6 11 C6 11.66 6 12.32 6 13 C5.01 13.33 4.02 13.66 3 14 C2.01 15.485 2.01 15.485 1 17 C0.34 16.01 -0.32 15.02 -1 14 C-3.56282742 13.27034634 -3.56282742 13.27034634 -6 13 C-6 12.01 -6 11.02 -6 10 C-4.35 10 -2.7 10 -1 10 C-1.33 8.68 -1.66 7.36 -2 6 C-3.32 5.67 -4.64 5.34 -6 5 C-6 4.01 -6 3.02 -6 2 C-4.02 2 -2.04 2 0 2 C0 1.34 0 0.68 0 0 Z " fill="#1F2A54" transform="translate(13,45)"/>
<path d="M0 0 C0.99 0 1.98 0 3 0 C3 1.65 3 3.3 3 5 C4.65 5 6.3 5 8 5 C7.67 5.99 7.34 6.98 7 8 C6.01 8.33 5.02 8.66 4 9 C3.67 9.99 3.34 10.98 3 12 C2.01 12.33 1.02 12.66 0 13 C-0.33 11.68 -0.66 10.36 -1 9 C-2.32 8.67 -3.64 8.34 -5 8 C-5 7.01 -5 6.02 -5 5 C-3.35 5 -1.7 5 0 5 C0 3.35 0 1.7 0 0 Z M-5 13 C-3.35 13 -1.7 13 0 13 C-0.99 14.485 -0.99 14.485 -2 16 C-2.99 16 -3.98 16 -5 16 C-5 15.01 -5 14.02 -5 13 Z " fill="#213C6C" transform="translate(12,19)"/>
<path d="M0 0 C0.33 0 0.66 0 1 0 C1.08071788 2.79224073 1.14035408 5.58216566 1.1875 8.375 C1.22520508 9.56609375 1.22520508 9.56609375 1.26367188 10.78125 C1.29004405 12.85586148 1.15486462 14.93100865 1 17 C0.01 17.66 -0.98 18.32 -2 19 C-3 18 -3 18 -3.09765625 14.62109375 C-3.09098369 13.22652923 -3.07902532 11.83198257 -3.0625 10.4375 C-3.05798828 9.72658203 -3.05347656 9.01566406 -3.04882812 8.28320312 C-3.03700864 6.52209987 -3.01907263 4.76103964 -3 3 C-2.01 2.67 -1.02 2.34 0 2 C0 1.34 0 0.68 0 0 Z " fill="#8A27E6" transform="translate(89,34)"/>
<path d="M0 0 C2 1.375 2 1.375 4 3 C4 3.66 4 4.32 4 5 C4.99 5 5.98 5 7 5 C7 6.65 7 8.3 7 10 C5.35 10 3.7 10 2 10 C2 9.01 2 8.02 2 7 C1.34 7 0.68 7 0 7 C-0.33 7.66 -0.66 8.32 -1 9 C-1.33 7.35 -1.66 5.7 -2 4 C-2.99 3.67 -3.98 3.34 -5 3 C-3.35 2.01 -1.7 1.02 0 0 Z " fill="#26253D" transform="translate(46,45)"/>
<path d="M0 0 C12.87 0 25.74 0 39 0 C39 0.33 39 0.66 39 1 C37.54762939 1.00616333 37.54762939 1.00616333 36.06591797 1.01245117 C32.4535693 1.03431893 28.84229813 1.08868513 25.23046875 1.15258789 C23.67100395 1.17570185 22.11138452 1.1901481 20.55175781 1.19555664 C18.30176168 1.20489571 16.05417522 1.24598512 13.8046875 1.29296875 C13.1138205 1.2890361 12.42295349 1.28510345 11.71115112 1.28105164 C6.13044319 1.44708789 3.83246851 3.2535665 0 7 C0 4.69 0 2.38 0 0 Z " fill="#326CB6" transform="translate(0,0)"/>
<path d="M0 0 C0.886875 0.391875 1.77375 0.78375 2.6875 1.1875 C2.3575 2.1775 2.0275 3.1675 1.6875 4.1875 C0.6975 4.1875 -0.2925 4.1875 -1.3125 4.1875 C-1.3125 5.5075 -1.3125 6.8275 -1.3125 8.1875 C-3.8125 9.9375 -3.8125 9.9375 -6.3125 11.1875 C-6.9725 10.5275 -7.6325 9.8675 -8.3125 9.1875 C-7.3225 8.8575 -6.3325 8.5275 -5.3125 8.1875 C-5.88594937 5.32025314 -6.1739515 4.3260485 -8.3125 2.1875 C-5.09279771 -0.27462528 -4.04623082 -0.99247171 0 0 Z " fill="#202B54" transform="translate(33.3125,30.8125)"/>
<path d="M0 0 C0.66 0 1.32 0 2 0 C3.1875 2.75 3.1875 2.75 4 6 C2.75 8.375 2.75 8.375 1 10 C0.34 10 -0.32 10 -1 10 C-1.103125 9.38125 -1.20625 8.7625 -1.3125 8.125 C-1.87525373 5.63473516 -1.87525373 5.63473516 -5 4 C-4.360625 3.71125 -3.72125 3.4225 -3.0625 3.125 C-0.84793921 2.17176549 -0.84793921 2.17176549 0 0 Z " fill="#211C3B" transform="translate(46,52)"/>
<path d="M0 0 C1.65 0 3.3 0 5 0 C5 0.99 5 1.98 5 3 C2.36 3.33 -0.28 3.66 -3 4 C-3.33 4.99 -3.66 5.98 -4 7 C-3.01 7 -2.02 7 -1 7 C-1 7.99 -1 8.98 -1 10 C-2.32 10 -3.64 10 -5 10 C-5 7.69 -5 5.38 -5 3 C-3.35 2.67 -1.7 2.34 0 2 C0 1.34 0 0.68 0 0 Z " fill="#6125A4" transform="translate(78,63)"/>
<path d="M0 0 C2.0625 0.4375 2.0625 0.4375 4 1 C4.5625 2.9375 4.5625 2.9375 5 5 C4 6 4 6 1.4375 6.0625 C0.2309375 6.0315625 0.2309375 6.0315625 -1 6 C-1.042721 4.33388095 -1.04063832 2.66617115 -1 1 C-0.67 0.67 -0.34 0.34 0 0 Z " fill="#E7E7E9" transform="translate(16,73)"/>
<path d="M0 0 C3.625 0.375 3.625 0.375 7 1 C6.67 1.66 6.34 2.32 6 3 C5.01 3.33 4.02 3.66 3 4 C2.67 4.99 2.34 5.98 2 7 C1.34 7 0.68 7 0 7 C-0.66 5.35 -1.32 3.7 -2 2 C-1.34 1.34 -0.68 0.68 0 0 Z " fill="#1E1E3E" transform="translate(38,39)"/>
<path d="M0 0 C0.66 0.33 1.32 0.66 2 1 C2.042721 2.66611905 2.04063832 4.33382885 2 6 C1 7 1 7 -1.5625 7.0625 C-2.7690625 7.0315625 -2.7690625 7.0315625 -4 7 C-4 5.02 -4 3.04 -4 1 C-2.02 1.99 -2.02 1.99 0 3 C0 2.01 0 1.02 0 0 Z " fill="#5DA0F3" transform="translate(36,17)"/>
<path d="M0 0 C2.0625 0.4375 2.0625 0.4375 4 1 C4.33 2.32 4.66 3.64 5 5 C3.35 5.33 1.7 5.66 0 6 C-0.38218767 4.34385343 -0.71395102 2.67542976 -1 1 C-0.67 0.67 -0.34 0.34 0 0 Z " fill="#DFDFE2" transform="translate(49,42)"/>
<path d="M0 0 C1.32 0.99 2.64 1.98 4 3 C4.33 2.01 4.66 1.02 5 0 C5.66 0.66 6.32 1.32 7 2 C6.34 3.65 5.68 5.3 5 7 C3.35 7 1.7 7 0 7 C0 4.69 0 2.38 0 0 Z " fill="#3FB3F6" transform="translate(15,17)"/>
<path d="M0 0 C1.25127906 3.54667178 0.72285053 5.72253438 -0.4375 9.25 C-0.72496094 10.14203125 -1.01242188 11.0340625 -1.30859375 11.953125 C-1.53675781 12.62859375 -1.76492187 13.3040625 -2 14 C-2.33 14 -2.66 14 -3 14 C-3 10.37 -3 6.74 -3 3 C-2.01 2.67 -1.02 2.34 0 2 C0 1.34 0 0.68 0 0 Z " fill="#942BEA" transform="translate(89,34)"/>
<path d="M0 0 C2 1.3125 2 1.3125 4 3 C4 3.99 4 4.98 4 6 C1.03 6 -1.94 6 -5 6 C-4 4 -4 4 -1 3 C-0.67 2.01 -0.34 1.02 0 0 Z " fill="#1C1930" transform="translate(29,75)"/>
<path d="M0 0 C1.65 0.33 3.3 0.66 5 1 C5 2.32 5 3.64 5 5 C3.02 5 1.04 5 -1 5 C-0.67 3.35 -0.34 1.7 0 0 Z " fill="#7025C7" transform="translate(57,73)"/>
<path d="M0 0 C1.32 0.66 2.64 1.32 4 2 C3.67 3.32 3.34 4.64 3 6 C1.35 5.67 -0.3 5.34 -2 5 C-1.125 1.125 -1.125 1.125 0 0 Z " fill="#8B38D4" transform="translate(58,42)"/>
<path d="M0 0 C2.97 0 5.94 0 9 0 C8.443125 0.4125 7.88625 0.825 7.3125 1.25 C4.83804044 3.12256399 2.4164771 5.05339344 0 7 C0 4.69 0 2.38 0 0 Z " fill="#151B30" transform="translate(0,0)"/>
<path d="M0 0 C1.65 0.33 3.3 0.66 5 1 C4.67 2.32 4.34 3.64 4 5 C2.35 4.67 0.7 4.34 -1 4 C-0.67 2.68 -0.34 1.36 0 0 Z " fill="#792AD0" transform="translate(57,66)"/>
<path d="M0 0 C1.65 0.33 3.3 0.66 5 1 C4.67 2.32 4.34 3.64 4 5 C2.35 4.67 0.7 4.34 -1 4 C-0.67 2.68 -0.34 1.36 0 0 Z " fill="#EEEEEF" transform="translate(24,66)"/>
<path d="M0 0 C1.65 0.33 3.3 0.66 5 1 C4.67 2.32 4.34 3.64 4 5 C2.35 4.67 0.7 4.34 -1 4 C-0.67 2.68 -0.34 1.36 0 0 Z " fill="#832CDF" transform="translate(57,58)"/>
<path d="M0 0 C1.65 0.33 3.3 0.66 5 1 C4.67 2.32 4.34 3.64 4 5 C2.35 4.67 0.7 4.34 -1 4 C-0.67 2.68 -0.34 1.36 0 0 Z " fill="#8930DD" transform="translate(57,50)"/>
<path d="M0 0 C1.65 0.33 3.3 0.66 5 1 C4.67 2.32 4.34 3.64 4 5 C2.35 4.67 0.7 4.34 -1 4 C-0.67 2.68 -0.34 1.36 0 0 Z " fill="#EDEEEE" transform="translate(57,35)"/>
<path d="M0 0 C0.33 0.99 0.66 1.98 1 3 C2.32 2.67 3.64 2.34 5 2 C5 3.65 5 5.3 5 7 C3.35 7 1.7 7 0 7 C-1.125 2.25 -1.125 2.25 0 0 Z " fill="#49A9F2" transform="translate(24,17)"/>
<path d="M0 0 C2.625 0.375 2.625 0.375 5 1 C5 1.66 5 2.32 5 3 C3.37373596 4.38232443 1.7074998 5.71937515 0 7 C-0.66 5.35 -1.32 3.7 -2 2 C-1.34 1.34 -0.68 0.68 0 0 Z " fill="#1C1A31" transform="translate(38,62)"/>
<path d="M0 0 C0.33 0 0.66 0 1 0 C1 3.96 1 7.92 1 12 C0.67 12 0.34 12 0 12 C-0.33 10.02 -0.66 8.04 -1 6 C-2.32 6 -3.64 6 -5 6 C-5 5.01 -5 4.02 -5 3 C-3.68 3 -2.36 3 -1 3 C-0.67 2.01 -0.34 1.02 0 0 Z " fill="#6D23B4" transform="translate(86,52)"/>
<path d="M0 0 C1.32 0 2.64 0 4 0 C4 1.65 4 3.3 4 5 C2.35 5 0.7 5 -1 5 C-0.67 3.35 -0.34 1.7 0 0 Z " fill="#7029D3" transform="translate(49,73)"/>
<path d="M0 0 C1.65 0 3.3 0 5 0 C5 1.65 5 3.3 5 5 C3.35 4.67 1.7 4.34 0 4 C0 2.68 0 1.36 0 0 Z " fill="#7427D5" transform="translate(48,66)"/>
<path d="M0 0 C1.65 0 3.3 0 5 0 C5 1.65 5 3.3 5 5 C3.35 4.67 1.7 4.34 0 4 C0 2.68 0 1.36 0 0 Z " fill="#3D4BE3" transform="translate(15,66)"/>
<path d="M0 0 C1.65 0 3.3 0 5 0 C4.67 1.65 4.34 3.3 4 5 C2.68 5 1.36 5 0 5 C0 3.35 0 1.7 0 0 Z " fill="#8E2EDE" transform="translate(65,58)"/>
<path d="M0 0 C1.32 0 2.64 0 4 0 C4 1.65 4 3.3 4 5 C2.35 5 0.7 5 -1 5 C-0.67 3.35 -0.34 1.7 0 0 Z " fill="#7133DF" transform="translate(41,58)"/>
<path d="M0 0 C1.32 0 2.64 0 4 0 C4 1.65 4 3.3 4 5 C2.35 5 0.7 5 -1 5 C-0.67 3.35 -0.34 1.7 0 0 Z " fill="#8434E3" transform="translate(49,50)"/>
<path d="M0 0 C1.32 0 2.64 0 4 0 C4 1.65 4 3.3 4 5 C2.35 5 0.7 5 -1 5 C-0.67 3.35 -0.34 1.7 0 0 Z " fill="#367EE8" transform="translate(16,50)"/>
<path d="M0 0 C1.65 0 3.3 0 5 0 C4.67 1.65 4.34 3.3 4 5 C2.68 5 1.36 5 0 5 C0 3.35 0 1.7 0 0 Z " fill="#3D79E6" transform="translate(24,43)"/>
<path d="M0 0 C1.32 0 2.64 0 4 0 C4 1.65 4 3.3 4 5 C2.35 5 0.7 5 -1 5 C-0.67 3.35 -0.34 1.7 0 0 Z " fill="#735BEC" transform="translate(41,35)"/>
<path d="M0 0 C1.32 0 2.64 0 4 0 C4 1.65 4 3.3 4 5 C2.35 5 0.7 5 -1 5 C-0.67 3.35 -0.34 1.7 0 0 Z " fill="#844FE7" transform="translate(49,27)"/>
<path d="M0 0 C2.475 0.495 2.475 0.495 5 1 C5 2.32 5 3.64 5 5 C3.35 5 1.7 5 0 5 C0 3.35 0 1.7 0 0 Z " fill="#41A0ED" transform="translate(24,27)"/>
<path d="M0 0 C1.32 0 2.64 0 4 0 C4 1.65 4 3.3 4 5 C2.35 5 0.7 5 -1 5 C-0.67 3.35 -0.34 1.7 0 0 Z " fill="#3DABF1" transform="translate(16,27)"/>
<path d="M0 0 C1.98 0.495 1.98 0.495 4 1 C4 2.32 4 3.64 4 5 C2.35 5 0.7 5 -1 5 C-0.67 3.35 -0.34 1.7 0 0 Z " fill="#6A2FDB" transform="translate(41,73)"/>
<path d="M0 0 C1.98 0.495 1.98 0.495 4 1 C4 2.32 4 3.64 4 5 C2.35 5 0.7 5 -1 5 C-0.67 3.35 -0.34 1.7 0 0 Z " fill="#5D2BDD" transform="translate(33,73)"/>
<path d="M0 0 C1.65 0 3.3 0 5 0 C4.67 1.65 4.34 3.3 4 5 C2.68 4.67 1.36 4.34 0 4 C0 2.68 0 1.36 0 0 Z " fill="#6230E5" transform="translate(32,66)"/>
<path d="M0 0 C1.65 0 3.3 0 5 0 C4.67 1.65 4.34 3.3 4 5 C2.68 4.67 1.36 4.34 0 4 C0 2.68 0 1.36 0 0 Z " fill="#682BDF" transform="translate(40,66)"/>
<path d="M0 0 C2.475 0.495 2.475 0.495 5 1 C4.67 2.32 4.34 3.64 4 5 C2.68 5 1.36 5 0 5 C0 3.35 0 1.7 0 0 Z " fill="#514EE6" transform="translate(24,58)"/>
<path d="M0 0 C1.32 0 2.64 0 4 0 C4 1.65 4 3.3 4 5 C2.35 4.67 0.7 4.34 -1 4 C-0.67 2.68 -0.34 1.36 0 0 Z " fill="#7D2EE5" transform="translate(49,58)"/>
<path d="M0 0 C2.475 0.495 2.475 0.495 5 1 C4.67 2.32 4.34 3.64 4 5 C2.68 5 1.36 5 0 5 C0 3.35 0 1.7 0 0 Z " fill="#F6F6F7" transform="translate(32,58)"/>
<path d="M0 0 C1.32 0 2.64 0 4 0 C4 1.65 4 3.3 4 5 C2.35 4.67 0.7 4.34 -1 4 C-0.67 2.68 -0.34 1.36 0 0 Z " fill="#3B70EE" transform="translate(16,58)"/>
<path d="M0 0 C1.98 0.495 1.98 0.495 4 1 C4 2.32 4 3.64 4 5 C2.35 5 0.7 5 -1 5 C-0.67 3.35 -0.34 1.7 0 0 Z " fill="#9C33EB" transform="translate(66,50)"/>
<path d="M0 0 C1.98 0.495 1.98 0.495 4 1 C4 2.32 4 3.64 4 5 C2.35 5 0.7 5 -1 5 C-0.67 3.35 -0.34 1.7 0 0 Z " fill="#F7F7F7" transform="translate(41,50)"/>
<path d="M0 0 C1.98 0.495 1.98 0.495 4 1 C4 2.32 4 3.64 4 5 C2.35 5 0.7 5 -1 5 C-0.67 3.35 -0.34 1.7 0 0 Z " fill="#6A4AE9" transform="translate(33,50)"/>
<path d="M0 0 C1.98 0.495 1.98 0.495 4 1 C4 2.32 4 3.64 4 5 C2.35 5 0.7 5 -1 5 C-0.67 3.35 -0.34 1.7 0 0 Z " fill="#4B58EC" transform="translate(25,50)"/>
<path d="M0 0 C1.65 0 3.3 0 5 0 C4.67 1.65 4.34 3.3 4 5 C2.68 4.67 1.36 4.34 0 4 C0 2.68 0 1.36 0 0 Z " fill="#605BE8" transform="translate(32,43)"/>
<path d="M0 0 C1.65 0 3.3 0 5 0 C4.67 1.65 4.34 3.3 4 5 C2.68 4.67 1.36 4.34 0 4 C0 2.68 0 1.36 0 0 Z " fill="#3C91ED" transform="translate(15,43)"/>
<path d="M0 0 C1.32 0 2.64 0 4 0 C4 1.65 4 3.3 4 5 C2.35 4.67 0.7 4.34 -1 4 C-0.67 2.68 -0.34 1.36 0 0 Z " fill="#874BEA" transform="translate(49,35)"/>
<path d="M0 0 C2.475 0.495 2.475 0.495 5 1 C4.67 2.32 4.34 3.64 4 5 C2.68 5 1.36 5 0 5 C0 3.35 0 1.7 0 0 Z " fill="#616DF0" transform="translate(32,35)"/>
<path d="M0 0 C2.475 0.495 2.475 0.495 5 1 C4.67 2.32 4.34 3.64 4 5 C2.68 5 1.36 5 0 5 C0 3.35 0 1.7 0 0 Z " fill="#3D97EE" transform="translate(24,35)"/>
<path d="M0 0 C1.32 0 2.64 0 4 0 C4 1.65 4 3.3 4 5 C2.35 4.67 0.7 4.34 -1 4 C-0.67 2.68 -0.34 1.36 0 0 Z " fill="#35A3F3" transform="translate(16,35)"/>
<path d="M0 0 C1.98 0.495 1.98 0.495 4 1 C4 2.32 4 3.64 4 5 C2.35 5 0.7 5 -1 5 C-0.67 3.35 -0.34 1.7 0 0 Z " fill="#7171F1" transform="translate(41,27)"/>
<path d="M0 0 C1.98 0.495 1.98 0.495 4 1 C4 2.32 4 3.64 4 5 C2.35 5 0.7 5 -1 5 C-0.67 3.35 -0.34 1.7 0 0 Z " fill="#4A9DF0" transform="translate(33,27)"/>
<path d="M0 0 C1.65 0 3.3 0 5 0 C5 1.32 5 2.64 5 4 C3.35 4 1.7 4 0 4 C0 2.68 0 1.36 0 0 Z " fill="#5331DA" transform="translate(24,74)"/>
<path d="M0 0 C1.65 0 3.3 0 5 0 C5 1.32 5 2.64 5 4 C3.35 4 1.7 4 0 4 C0 2.68 0 1.36 0 0 Z " fill="#8D2BE4" transform="translate(65,66)"/>
<path d="M0 0 C1.65 0 3.3 0 5 0 C5 1.32 5 2.64 5 4 C3.35 4 1.7 4 0 4 C0 2.68 0 1.36 0 0 Z " fill="#714AF1" transform="translate(40,43)"/>
<path d="M0 0 C0.33 0 0.66 0 1 0 C1.33 2.31 1.66 4.62 2 7 C0.35 7 -1.3 7 -3 7 C-3 6.01 -3 5.02 -3 4 C-2.01 4 -1.02 4 0 4 C0 2.68 0 1.36 0 0 Z " fill="#2D3192" transform="translate(10,74)"/>
<path d="M0 0 C1.65 0 3.3 0 5 0 C5 0.99 5 1.98 5 3 C2.03 3 -0.94 3 -4 3 C-2.68 2.67 -1.36 2.34 0 2 C0 1.34 0 0.68 0 0 Z " fill="#541E8E" transform="translate(78,63)"/>
</svg>
