<?xml version="1.0" standalone="no"?>
<!DOCTYPE svg PUBLIC "-//W3C//DTD SVG 20010904//EN"
 "http://www.w3.org/TR/2001/REC-SVG-20010904/DTD/svg10.dtd">
<svg version="1.0" xmlns="http://www.w3.org/2000/svg"
 width="127.000000pt" height="129.000000pt" viewBox="0 0 127.000000 129.000000"
 preserveAspectRatio="xMidYMid meet">

<g transform="translate(0.000000,129.000000) scale(0.100000,-0.100000)"
fill="#000000" stroke="none">
<path d="M555 1241 l-60 -6 40 -8 c79 -16 213 -25 360 -26 134 -1 154 -3 185
-22 42 -26 51 -38 44 -61 -3 -11 0 -18 7 -18 7 0 9 -3 6 -6 -4 -4 -12 -2 -19
4 -26 21 -33 -15 -36 -198 -3 -167 -12 -240 -31 -240 -4 0 -21 -13 -39 -29
-40 -37 -34 -61 14 -61 27 0 34 -4 34 -19 0 -15 -8 -21 -32 -23 -28 -2 -34 -8
-36 -30 -3 -25 0 -28 28 -28 25 0 31 -4 28 -17 -2 -11 -14 -19 -30 -21 -24 -3
-27 -8 -30 -50 l-3 -47 -50 -5 -50 -5 -2 -38 c0 -21 -4 -41 -7 -44 -3 -3 -117
-5 -253 -4 -208 2 -253 0 -278 -13 -33 -18 -105 -22 -105 -6 0 6 -6 10 -14 10
-8 0 -17 6 -19 13 -4 9 -8 9 -15 -2 -8 -11 -16 -12 -34 -4 l-23 10 33 29 c17
16 32 31 32 34 0 3 -16 14 -35 24 -44 24 -44 33 0 42 19 3 38 10 41 15 7 11
-13 31 -44 44 l-23 10 30 34 c33 37 40 57 17 48 -7 -3 -26 3 -42 14 -16 10
-24 19 -19 20 6 1 15 2 20 4 6 1 17 3 26 3 24 3 31 28 12 44 -15 11 -16 11
-10 -5 4 -11 3 -16 -3 -12 -6 3 -10 12 -10 20 0 7 -8 16 -17 19 -23 9 -4 26
38 35 18 4 35 13 37 21 4 12 2 13 -9 3 -15 -15 -63 -18 -54 -3 3 6 1 10 -5 10
-7 0 -10 -6 -7 -13 2 -7 -3 -22 -13 -34 l-18 -22 0 27 c0 15 5 33 11 40 7 9 6
11 -4 7 -12 -4 -15 15 -17 112 -3 130 -9 176 -23 167 -5 -3 -10 7 -10 23 -1
23 -3 21 -10 -12 -12 -60 -11 -723 2 -768 11 -40 70 -104 104 -113 11 -3 227
-3 480 -2 l460 3 33 24 c18 12 31 28 29 35 -3 6 5 22 17 35 15 18 18 25 8 28
-10 4 -9 10 5 25 14 16 15 22 5 25 -10 4 -10 8 0 21 11 12 11 16 0 20 -10 3
-10 7 0 20 11 12 11 16 0 20 -10 3 -10 7 0 20 11 12 11 16 0 20 -10 3 -10 7 0
20 11 12 11 16 0 20 -10 3 -10 7 0 20 11 12 11 16 0 20 -10 3 -10 7 0 20 11
12 11 16 0 20 -10 3 -10 7 0 20 11 12 11 16 0 20 -10 3 -10 7 0 20 11 12 11
16 0 20 -10 3 -10 7 -1 18 9 11 8 14 -6 14 -17 0 -17 1 0 20 17 19 17 20 0 20
-17 0 -17 1 0 20 17 19 17 20 0 20 -17 0 -17 1 1 21 14 16 16 23 6 26 -10 4
-10 8 0 21 11 12 11 16 0 20 -10 3 -10 7 0 20 11 12 11 16 0 20 -10 3 -10 7 0
20 11 12 11 16 0 20 -10 3 -10 7 0 20 11 12 11 16 0 20 -10 3 -10 7 0 20 11
12 11 16 0 20 -10 3 -10 7 0 20 11 12 11 16 0 20 -10 3 -10 7 0 20 11 12 11
16 0 20 -10 3 -10 7 -1 18 9 11 8 14 -5 14 -19 0 -21 16 -3 24 9 5 9 7 -1 12
-6 3 -9 10 -6 15 3 6 -3 18 -14 27 -10 9 -17 22 -16 27 2 6 -13 21 -33 35 -36
25 -38 25 -272 26 -130 1 -263 -2 -296 -5z m552 -173 c-3 -8 -6 -5 -6 6 -1 11
2 17 5 13 3 -3 4 -12 1 -19z m13 -518 c0 -11 -7 -20 -15 -20 -8 0 -15 9 -15
20 0 11 7 20 15 20 8 0 15 -9 15 -20z m-7 -86 c9 -10 -4 -34 -19 -34 -8 0 -14
9 -14 20 0 19 19 27 33 14z m-78 -110 c0 -10 -8 -20 -17 -22 -18 -3 -26 27
-11 42 12 11 28 0 28 -20z"/>
<path d="M620 1114 c-14 -8 -16 -12 -5 -7 11 4 110 10 220 13 l200 6 -195 2
c-160 1 -199 -1 -220 -14z"/>
<path d="M315 1100 c-3 -6 1 -7 9 -4 18 7 21 14 7 14 -6 0 -13 -4 -16 -10z"/>
<path d="M266 1051 c-4 -5 3 -7 14 -4 23 6 26 13 6 13 -8 0 -17 -4 -20 -9z"/>
<path d="M365 1050 c-8 -13 5 -13 25 0 13 8 13 10 -2 10 -9 0 -20 -4 -23 -10z"/>
<path d="M475 1049 c-11 -17 -2 -18 19 -3 17 12 17 14 4 14 -9 0 -20 -5 -23
-11z"/>
<path d="M315 1020 c-3 -5 -2 -10 4 -10 5 0 13 5 16 10 3 6 2 10 -4 10 -5 0
-13 -4 -16 -10z"/>
<path d="M425 1020 c-3 -5 -2 -10 4 -10 5 0 13 5 16 10 3 6 2 10 -4 10 -5 0
-13 -4 -16 -10z"/>
<path d="M535 1020 c-3 -5 -1 -10 4 -10 6 0 11 5 11 10 0 6 -2 10 -4 10 -3 0
-8 -4 -11 -10z"/>
<path d="M808 1003 c7 -3 16 -2 19 1 4 3 -2 6 -13 5 -11 0 -14 -3 -6 -6z"/>
<path d="M150 949 c0 -5 5 -7 10 -4 6 3 10 8 10 11 0 2 -4 4 -10 4 -5 0 -10
-5 -10 -11z"/>
<path d="M278 953 c7 -3 16 -2 19 1 4 3 -2 6 -13 5 -11 0 -14 -3 -6 -6z"/>
<path d="M388 953 c7 -3 16 -2 19 1 4 3 -2 6 -13 5 -11 0 -14 -3 -6 -6z"/>
<path d="M691 901 c-10 -17 -6 -51 5 -51 6 0 46 41 42 44 -2 1 -11 7 -20 14
-14 11 -18 10 -27 -7z"/>
<path d="M585 900 c-4 -6 1 -7 12 -4 16 5 16 4 2 -8 -18 -15 -14 -38 6 -38 7
0 19 7 26 16 12 15 11 16 -11 10 -23 -6 -24 -6 -7 7 16 13 16 15 1 21 -21 8
-22 8 -29 -4z"/>
<path d="M305 870 c-3 -5 -1 -10 4 -10 6 0 11 5 11 10 0 6 -2 10 -4 10 -3 0
-8 -4 -11 -10z"/>
<path d="M496 865 c-11 -9 -14 -15 -7 -15 7 0 19 7 27 15 20 19 5 19 -20 0z"/>
<path d="M155 860 c-3 -5 -1 -10 4 -10 6 0 11 5 11 10 0 6 -2 10 -4 10 -3 0
-8 -4 -11 -10z"/>
<path d="M482 811 c-25 -15 -10 -46 23 -49 l30 -2 -30 13 c-19 9 -25 16 -17
21 7 4 12 3 12 -3 0 -6 7 -8 15 -5 8 4 15 11 15 16 0 6 -6 8 -14 5 -8 -3 -16
-2 -18 3 -2 5 -9 6 -16 1z"/>
<path d="M583 808 c-24 -33 11 -64 42 -38 17 14 21 35 5 25 -5 -3 -10 1 -10 9
0 19 -24 21 -37 4z"/>
<path d="M683 804 c-9 -23 5 -44 29 -43 21 0 21 1 4 8 -19 7 -19 8 3 23 l22
16 -26 5 c-17 3 -28 0 -32 -9z"/>
<path d="M400 773 c-24 -12 -24 -13 -3 -13 12 0 25 5 28 11 11 16 2 17 -25 2z"/>
<path d="M145 760 c-4 -6 6 -7 27 -3 44 8 48 13 10 13 -17 0 -34 -4 -37 -10z"/>
<path d="M1012 734 c-7 -8 -8 -14 -3 -14 10 0 25 19 20 25 -2 1 -10 -3 -17
-11z"/>
<path d="M170 711 c0 -6 4 -13 10 -16 6 -3 7 1 4 9 -7 18 -14 21 -14 7z"/>
<path d="M475 711 c-3 -2 -5 -13 -5 -23 0 -13 8 -18 30 -18 17 0 30 5 30 10 0
6 -7 10 -16 10 -13 0 -14 3 -4 14 9 12 8 15 -10 13 -11 -1 -23 -3 -25 -6z"/>
<path d="M579 704 c-6 -7 -8 -18 -4 -24 8 -13 35 -13 35 0 0 6 7 10 15 10 25
0 17 17 -10 22 -14 3 -30 -1 -36 -8z"/>
<path d="M787 713 c-4 -3 -7 -15 -7 -25 0 -13 7 -18 28 -18 20 0 23 3 12 10
-12 8 -12 10 3 16 9 3 14 10 11 15 -6 11 -38 12 -47 2z"/>
<path d="M386 694 c19 -15 19 -16 -1 -9 -15 5 -17 3 -8 -6 9 -9 17 -7 35 6 15
11 17 15 6 12 -10 -4 -18 -2 -18 3 0 6 -8 10 -17 10 -15 0 -14 -2 3 -16z"/>
<path d="M381 617 c-6 -6 -11 -19 -11 -29 0 -13 8 -18 30 -18 17 0 30 5 30 10
0 6 -5 10 -11 10 -6 0 -9 6 -6 14 7 18 -17 28 -32 13z"/>
<path d="M483 623 c-7 -2 -13 -16 -13 -29 0 -28 23 -32 46 -9 14 13 14 17 0
30 -8 8 -16 15 -18 14 -2 0 -9 -3 -15 -6z"/>
<path d="M793 623 c-7 -2 -13 -16 -13 -29 0 -19 5 -24 24 -24 28 0 45 19 26
30 -6 4 -11 11 -10 16 2 11 -11 14 -27 7z"/>
<path d="M890 615 c-7 -8 -10 -22 -6 -30 6 -17 56 -21 56 -5 0 6 -6 10 -12 10
-9 0 -8 4 2 10 13 9 13 11 0 20 -20 13 -25 13 -40 -5z"/>
<path d="M267 613 c-13 -13 -7 -23 16 -24 21 0 21 -1 2 -10 -18 -8 -18 -8 4
-6 14 1 26 8 29 15 2 7 0 12 -5 11 -4 -1 -17 -1 -28 1 l-20 1 20 9 c15 6 16 9
4 9 -9 1 -19 -2 -22 -6z"/>
<path d="M676 604 c-13 -33 21 -47 45 -18 10 13 10 17 -2 25 -21 13 -36 11
-43 -7z"/>
<path d="M626 583 c-6 -14 -5 -15 5 -6 7 7 10 15 7 18 -3 3 -9 -2 -12 -12z"/>
<path d="M265 510 c-9 -28 2 -40 33 -39 24 0 25 1 7 9 -18 7 -19 8 -2 15 9 4
17 11 17 17 0 5 -4 7 -9 3 -5 -3 -12 -1 -16 5 -10 16 -23 12 -30 -10z"/>
<path d="M383 523 c-18 -7 -16 -53 1 -53 22 0 46 11 46 21 0 5 -7 9 -15 9 -9
0 -12 6 -9 15 6 15 -1 18 -23 8z"/>
<path d="M580 515 c-14 -17 -7 -45 12 -45 7 0 22 8 33 16 20 15 20 15 1 30
-25 18 -31 18 -46 -1z"/>
<path d="M682 518 c-19 -19 -14 -37 14 -44 27 -7 61 14 37 23 -7 2 -9 11 -6
19 6 18 -28 19 -45 2z"/>
<path d="M793 523 c-7 -2 -13 -16 -13 -29 0 -19 5 -24 27 -24 14 0 23 3 20 7
-4 3 -2 13 5 20 17 21 -10 38 -39 26z"/>
<path d="M890 515 c-10 -12 -10 -18 0 -30 26 -31 69 -5 46 28 -16 21 -30 22
-46 2z"/>
<path d="M515 480 c-3 -5 -1 -10 4 -10 6 0 11 5 11 10 0 6 -2 10 -4 10 -3 0
-8 -4 -11 -10z"/>
<path d="M267 423 c-23 -23 6 -59 38 -47 17 7 20 24 4 24 -8 0 -8 5 1 15 10
13 9 15 -12 15 -14 0 -28 -3 -31 -7z"/>
<path d="M470 406 c0 -30 28 -42 49 -20 12 12 13 18 3 21 -6 3 -10 9 -6 14 3
5 -6 9 -20 9 -21 0 -26 -5 -26 -24z"/>
<path d="M573 414 c-3 -8 1 -22 9 -31 13 -12 20 -13 38 -3 18 10 20 14 9 21
-12 7 -11 9 1 9 13 0 13 1 0 10 -23 15 -50 12 -57 -6z"/>
<path d="M678 418 c-13 -35 28 -52 52 -23 10 12 9 15 -4 15 -10 0 -14 5 -11
10 3 6 -3 10 -13 10 -11 0 -22 -6 -24 -12z"/>
<path d="M787 423 c-4 -3 -7 -15 -7 -25 0 -13 8 -18 30 -18 17 0 30 5 30 10 0
6 -4 10 -10 10 -5 0 -7 7 -4 15 4 10 0 15 -13 15 -11 0 -23 -3 -26 -7z"/>
<path d="M887 423 c-12 -11 -8 -33 8 -39 8 -3 22 2 31 11 15 14 15 18 3 26
-17 10 -33 11 -42 2z"/>
<path d="M483 333 c-18 -7 -16 -50 3 -57 9 -3 23 -2 32 4 13 7 14 9 3 10 -12
0 -12 3 -3 12 7 7 12 15 12 19 0 9 -32 17 -47 12z"/>
<path d="M582 328 c-17 -17 -15 -48 4 -55 9 -3 24 3 36 15 19 19 20 22 5 36
-19 19 -29 20 -45 4z"/>
<path d="M368 313 c-7 -27 1 -43 22 -43 23 0 51 31 32 37 -6 3 -10 9 -6 14 3
5 -6 9 -19 9 -15 0 -26 -7 -29 -17z"/>
<path d="M676 321 c-3 -5 3 -20 13 -32 16 -19 22 -22 32 -11 11 10 10 12 -1
12 -11 0 -11 3 -2 12 7 7 12 16 12 20 0 11 -47 10 -54 -1z"/>
<path d="M780 305 c0 -14 2 -25 4 -25 2 0 11 -3 20 -6 10 -4 16 -1 16 9 0 8 6
18 13 20 9 4 8 8 -3 16 -27 19 -50 13 -50 -14z"/>
<path d="M190 269 c0 -5 5 -7 10 -4 6 3 10 8 10 11 0 2 -4 4 -10 4 -5 0 -10
-5 -10 -11z"/>
</g>
</svg>
