<?xml version="1.0" encoding="UTF-8"?>
<svg version="1.1" xmlns="http://www.w3.org/2000/svg" width="32" height="32">
<path d="M0 0 C10.56 0 21.12 0 32 0 C32 10.56 32 21.12 32 32 C21.44 32 10.88 32 0 32 C0 21.44 0 10.88 0 0 Z " fill="#3284DF" transform="translate(0,0)"/>
<path d="M0 0 C1.32 0 2.64 0 4 0 C4 10.56 4 21.12 4 32 C-6.56 32 -17.12 32 -28 32 C-27.505 30.515 -27.505 30.515 -27 29 C-25.02 29 -23.04 29 -21 29 C-21.66 28.34 -22.32 27.68 -23 27 C-21.35 26.67 -19.7 26.34 -18 26 C-17.67 24.68 -17.34 23.36 -17 22 C-16.34 22 -15.68 22 -15 22 C-14.67 20.68 -14.34 19.36 -14 18 C-14.99 17.34 -15.98 16.68 -17 16 C-16.34 16 -15.68 16 -15 16 C-15 15.01 -15 14.02 -15 13 C-13.68 13 -12.36 13 -11 13 C-11 13.99 -11 14.98 -11 16 C-9.68 16 -8.36 16 -7 16 C-7.061875 15.21625 -7.12375 14.4325 -7.1875 13.625 C-7.0946875 12.325625 -7.0946875 12.325625 -7 11 C-6.01 10.34 -5.02 9.68 -4 9 C-4 10.98 -4 12.96 -4 15 C-3.34 15 -2.68 15 -2 15 C-1.875 18.375 -1.875 18.375 -2 22 C-2.66 22.66 -3.32 23.32 -4 24 C-4.33 23.67 -4.66 23.34 -5 23 C-5 24.98 -5 26.96 -5 29 C-1.535 28.505 -1.535 28.505 2 28 C2.05783842 23.70838953 2.0935412 19.41687855 2.125 15.125 C2.14175781 13.90167969 2.15851562 12.67835937 2.17578125 11.41796875 C2.18222656 10.25136719 2.18867188 9.08476562 2.1953125 7.8828125 C2.20578613 6.80402832 2.21625977 5.72524414 2.22705078 4.61376953 C2.26839977 1.83955978 2.26839977 1.83955978 0 0 Z " fill="#372164" transform="translate(28,0)"/>
<path d="M0 0 C1.97909398 -0.02686553 3.95828971 -0.04633375 5.9375 -0.0625 C7.03964844 -0.07410156 8.14179688 -0.08570313 9.27734375 -0.09765625 C12 0 12 0 13 1 C13.07205511 2.68608966 13.08386068 4.37500659 13.0625 6.0625 C13.05347656 6.98160156 13.04445313 7.90070312 13.03515625 8.84765625 C13.02355469 9.55792969 13.01195313 10.26820312 13 11 C12.01 11.495 12.01 11.495 11 12 C10.34 11.67 9.68 11.34 9 11 C8.375 8.4375 8.375 8.4375 8 6 C7.34 7.98 6.68 9.96 6 12 C4.68 12 3.36 12 2 12 C2 11.01 2 10.02 2 9 C0.68 9 -0.64 9 -2 9 C-2 9.99 -2 10.98 -2 12 C-1.01 12.66 -0.02 13.32 1 14 C-1 17 -1 17 -4 19 C-4.33 19.99 -4.66 20.98 -5 22 C-8.96 22.495 -8.96 22.495 -13 23 C-12.89171875 22.07380859 -12.89171875 22.07380859 -12.78125 21.12890625 C-12.1511141 15.37891613 -11.90671719 9.78353441 -12 4 C-8.30458414 3.04975021 -5.69541586 3.04975021 -2 4 C-1.34 2.68 -0.68 1.36 0 0 Z " fill="#2E5592" transform="translate(15,4)"/>
<path d="M0 0 C1.77449594 1.77449594 1.13030072 4.35017261 1.1328125 6.75 C1.13474609 8.49796875 1.13474609 8.49796875 1.13671875 10.28125 C1.13285156 11.5084375 1.12898438 12.735625 1.125 14 C1.13080078 15.84078125 1.13080078 15.84078125 1.13671875 17.71875 C1.13542969 18.8840625 1.13414063 20.049375 1.1328125 21.25 C1.13168457 22.32765625 1.13055664 23.4053125 1.12939453 24.515625 C1 27 1 27 0 28 C-2.33297433 28.04092937 -4.66705225 28.04241723 -7 28 C-7.33 25.69 -7.66 23.38 -8 21 C-7.01 20.67 -6.02 20.34 -5 20 C-4.855625 19.195625 -4.71125 18.39125 -4.5625 17.5625 C-4 15 -4 15 -3 14 C-2.92755947 11.98035801 -2.91622812 9.95832876 -2.9375 7.9375 C-2.958125 5.978125 -2.97875 4.01875 -3 2 C-6.96 2 -10.92 2 -15 2 C-10.99374872 -2.00625128 -5.18411106 -1.23431216 0 0 Z " fill="#7E20DA" transform="translate(30,1)"/>
<path d="M0 0 C1.32 0 2.64 0 4 0 C4 10.56 4 21.12 4 32 C-6.56 32 -17.12 32 -28 32 C-27.505 30.515 -27.505 30.515 -27 29 C-25.576875 29.061875 -25.576875 29.061875 -24.125 29.125 C-20.89755144 29.34973818 -20.89755144 29.34973818 -19 27 C-15.9609375 26.8046875 -15.9609375 26.8046875 -12.375 26.875 C-10.59222656 26.90207031 -10.59222656 26.90207031 -8.7734375 26.9296875 C-7.85820312 26.95289062 -6.94296875 26.97609375 -6 27 C-5.67 26.34 -5.34 25.68 -5 25 C-5 26.32 -5 27.64 -5 29 C-1.535 28.505 -1.535 28.505 2 28 C2.05783842 23.70838953 2.0935412 19.41687855 2.125 15.125 C2.14175781 13.90167969 2.15851562 12.67835937 2.17578125 11.41796875 C2.18222656 10.25136719 2.18867188 9.08476562 2.1953125 7.8828125 C2.20578613 6.80402832 2.21625977 5.72524414 2.22705078 4.61376953 C2.26839977 1.83955978 2.26839977 1.83955978 0 0 Z " fill="#531BC0" transform="translate(28,0)"/>
<path d="M0 0 C3.3 0 6.6 0 10 0 C10 2.97 10 5.94 10 9 C9.34 9 8.68 9 8 9 C7.67 7.68 7.34 6.36 7 5 C6.34 6.98 5.68 8.96 5 11 C3.68 11 2.36 11 1 11 C1 10.01 1 9.02 1 8 C-0.32 8 -1.64 8 -3 8 C-3 8.99 -3 9.98 -3 11 C-2.01 11.66 -1.02 12.32 0 13 C-1.87979752 15.81969628 -3.22169694 17.17673862 -6 19 C-6.66 19 -7.32 19 -8 19 C-8 18.01 -8 17.02 -8 16 C-7.34 16 -6.68 16 -6 16 C-6 13.36 -6 10.72 -6 8 C-5.01 7.67 -4.02 7.34 -3 7 C-3 6.01 -3 5.02 -3 4 C-0.36 3.67 2.28 3.34 5 3 C3.35 2.67 1.7 2.34 0 2 C0 1.34 0 0.68 0 0 Z " fill="#584C91" transform="translate(16,5)"/>
<path d="M0 0 C0.91007813 0.00902344 1.82015625 0.01804688 2.7578125 0.02734375 C3.45648438 0.03894531 4.15515625 0.05054687 4.875 0.0625 C6 4.8125 6 4.8125 4.875 7.0625 C-3.69642857 7.34821429 -3.69642857 7.34821429 -7.125 5.0625 C-7.125 3.7425 -7.125 2.4225 -7.125 1.0625 C-4.60024538 -0.19987731 -2.81299534 -0.03606404 0 0 Z " fill="#3FB1FC" transform="translate(8.125,0.9375)"/>
<path d="M0 0 C1.32 0 2.64 0 4 0 C4 10.56 4 21.12 4 32 C-6.56 32 -17.12 32 -28 32 C-27.505 30.515 -27.505 30.515 -27 29 C-26.67 29.33 -26.34 29.66 -26 30 C-23.92737924 30.08767112 -21.85179706 30.10695873 -19.77734375 30.09765625 C-17.88725586 30.09282227 -17.88725586 30.09282227 -15.95898438 30.08789062 C-14.61848891 30.07953403 -13.27799412 30.07106907 -11.9375 30.0625 C-10.59310058 30.0574866 -9.2486994 30.05292342 -7.90429688 30.04882812 C-4.60282059 30.03699488 -1.30143197 30.02050971 2 30 C2.04939662 26.04903022 2.08571755 22.0981797 2.10986328 18.14697266 C2.12488107 16.1408864 2.15028981 14.13488676 2.17578125 12.12890625 C2.18222656 10.87207031 2.18867188 9.61523438 2.1953125 8.3203125 C2.20578613 7.15773926 2.21625977 5.99516602 2.22705078 4.79736328 C2.29261997 1.86089721 2.29261997 1.86089721 0 0 Z " fill="#231740" transform="translate(28,0)"/>
<path d="M0 0 C1.98 0.99 1.98 0.99 4 2 C3.67 4.64 3.34 7.28 3 10 C5.64 10.66 8.28 11.32 11 12 C7.60379269 14.08997373 4.94836905 14.2632246 1 14 C-0 13 -0 13 -0.09765625 10.05859375 C-0.08605469 8.86363281 -0.07445312 7.66867188 -0.0625 6.4375 C-0.05347656 5.23996094 -0.04445312 4.04242188 -0.03515625 2.80859375 C-0.02355469 1.88175781 -0.01195312 0.95492188 0 0 Z " fill="#3450D6" transform="translate(0,16)"/>
<path d="M0 0 C1.60725635 3.21451269 1.05748185 6.43612536 1 10 C0.01 10.495 0.01 10.495 -1 11 C-1.33 8.03 -1.66 5.06 -2 2 C-5.96 2 -9.92 2 -14 2 C-10.32402782 -1.67597218 -4.78111923 -1.54683269 0 0 Z " fill="#995FF5" transform="translate(29,1)"/>
<path d="M0 0 C3.3 0 6.6 0 10 0 C10 2.97 10 5.94 10 9 C9.34 9 8.68 9 8 9 C7.67 7.68 7.34 6.36 7 5 C6.01 5.33 5.02 5.66 4 6 C4.33 5.01 4.66 4.02 5 3 C3.35 2.67 1.7 2.34 0 2 C0 1.34 0 0.68 0 0 Z " fill="#E4E4E7" transform="translate(16,5)"/>
<path d="M0 0 C0.33 0.99 0.66 1.98 1 3 C1.66 3 2.32 3 3 3 C3.33 2.01 3.66 1.02 4 0 C4 1.98 4 3.96 4 6 C4.66 6 5.32 6 6 6 C6 6.66 6 7.32 6 8 C3.36 8.33 0.72 8.66 -2 9 C-1.34 6.03 -0.68 3.06 0 0 Z " fill="#3A3B72" transform="translate(4,18)"/>
<path d="M0 0 C1.32 0 2.64 0 4 0 C4 0.99 4 1.98 4 3 C5.32 3 6.64 3 8 3 C8 4.65 8 6.3 8 8 C6.68 8 5.36 8 4 8 C3.67 7.01 3.34 6.02 3 5 C1.35 4.67 -0.3 4.34 -2 4 C-1.34 3.67 -0.68 3.34 0 3 C0 2.01 0 1.02 0 0 Z " fill="#492D7F" transform="translate(13,13)"/>
<path d="M0 0 C0.66 0.33 1.32 0.66 2 1 C2 6.94 2 12.88 2 19 C1.67 18.34 1.34 17.68 1 17 C-0.65 17 -2.3 17 -4 17 C-3.34 16.05125 -2.68 15.1025 -2 14.125 C0.67400332 9.53964924 0.37403169 5.16371523 0 0 Z " fill="#8C2ADB" transform="translate(29,1)"/>
<path d="M0 0 C1.97909398 -0.02686553 3.95828971 -0.04633375 5.9375 -0.0625 C7.03964844 -0.07410156 8.14179688 -0.08570313 9.27734375 -0.09765625 C12 0 12 0 13 1 C13.07205511 2.68608966 13.08386068 4.37500659 13.0625 6.0625 C13.05347656 6.98160156 13.04445313 7.90070312 13.03515625 8.84765625 C13.02355469 9.55792969 13.01195312 10.26820312 13 11 C12.01 11.495 12.01 11.495 11 12 C10.34 11.34 9.68 10.68 9 10 C9.66 10 10.32 10 11 10 C11 7.03 11 4.06 11 1 C7.7 1 4.4 1 1 1 C0.67 1.66 0.34 2.32 0 3 C0 2.01 0 1.02 0 0 Z " fill="#584D71" transform="translate(15,4)"/>
<path d="M0 0 C5.61 0 11.22 0 17 0 C17 0.33 17 0.66 17 1 C14.69 1.33 12.38 1.66 10 2 C13.3 2.33 16.6 2.66 20 3 C20 3.33 20 3.66 20 4 C13.565 4.495 13.565 4.495 7 5 C6.67 4.01 6.34 3.02 6 2 C3.03 1.505 3.03 1.505 0 1 C0 0.67 0 0.34 0 0 Z " fill="#6A6ADC" transform="translate(7,0)"/>
<path d="M0 0 C0.66 0 1.32 0 2 0 C2 3.96 2 7.92 2 12 C1.34 12 0.68 12 0 12 C-1.60355101 8.49223216 -2.22036864 5.85645121 -2 2 C-1.34 2 -0.68 2 0 2 C0 1.34 0 0.68 0 0 Z " fill="#28478B" transform="translate(5,9)"/>
<path d="M0 0 C0.33 1.32 0.66 2.64 1 4 C2.65 4 4.3 4 6 4 C4.61122646 7.35620271 3.08322035 9.07298728 0 11 C-0.66 11 -1.32 11 -2 11 C-2 10.01 -2 9.02 -2 8 C-1.34 8 -0.68 8 0 8 C0 5.36 0 2.72 0 0 Z " fill="#625D85" transform="translate(10,13)"/>
<path d="M0 0 C2.31 0 4.62 0 7 0 C7 1.32 7 2.64 7 4 C4.69 4 2.38 4 0 4 C0 2.68 0 1.36 0 0 Z " fill="#4B228D" transform="translate(14,22)"/>
<path d="M0 0 C1.32 0 2.64 0 4 0 C4 2.97 4 5.94 4 9 C4.66 9 5.32 9 6 9 C6 10.65 6 12.3 6 14 C5.34 14 4.68 14 4 14 C3.03929566 11.11788698 2.89418117 9.30149956 2.9375 6.3125 C2.94652344 5.50425781 2.95554687 4.69601563 2.96484375 3.86328125 C2.98224609 2.94095703 2.98224609 2.94095703 3 2 C2.34 2 1.68 2 1 2 C0.67 2.66 0.34 3.32 0 4 C-0.33 3.01 -0.66 2.02 -1 1 C-0.67 0.67 -0.34 0.34 0 0 Z " fill="#2A3B7B" transform="translate(4,7)"/>
<path d="M0 0 C-0.33 0.99 -0.66 1.98 -1 3 C-3.64 3 -6.28 3 -9 3 C-9 2.01 -9 1.02 -9 0 C-5.93109813 -1.53445094 -3.29905734 -0.54984289 0 0 Z " fill="#3E87C9" transform="translate(14,5)"/>
<path d="M0 0 C0.33 0.99 0.66 1.98 1 3 C4.3 3.33 7.6 3.66 11 4 C7.00975253 5.99512373 5.30913667 6.28727578 1 6 C0 5 0 5 -0.0625 2.4375 C-0.041875 1.633125 -0.02125 0.82875 0 0 Z " fill="#3E2FD7" transform="translate(0,24)"/>
<path d="M0 0 C2.31 0.33 4.62 0.66 7 1 C7 3.64 7 6.28 7 9 C6.01 9.495 6.01 9.495 5 10 C4.67 7.03 4.34 4.06 4 1 C2.68 0.67 1.36 0.34 0 0 Z " fill="#BB53F7" transform="translate(23,2)"/>
<path d="M0 0 C0.33 0.66 0.66 1.32 1 2 C3.31 2 5.62 2 8 2 C7.67 2.66 7.34 3.32 7 4 C4.36 4 1.72 4 -1 4 C-0.67 2.68 -0.34 1.36 0 0 Z " fill="#282A46" transform="translate(14,5)"/>
<path d="M0 0 C0.33 0 0.66 0 1 0 C1 2.31 1 4.62 1 7 C-0.65 7 -2.3 7 -4 7 C-2.68 4.69 -1.36 2.38 0 0 Z " fill="#A033F1" transform="translate(29,11)"/>
<path d="M0 0 C0.33 0 0.66 0 1 0 C1 1.98 1 3.96 1 6 C1.66 6 2.32 6 3 6 C3 6.66 3 7.32 3 8 C1.68 7.67 0.36 7.34 -1 7 C-1.625 4.625 -1.625 4.625 -2 2 C-1.34 1.34 -0.68 0.68 0 0 Z " fill="#221E38" transform="translate(23,9)"/>
<path d="M0 0 C0.66 0 1.32 0 2 0 C2 2.31 2 4.62 2 7 C1.34 7 0.68 7 0 7 C-0.66 5.35 -1.32 3.7 -2 2 C-1.34 2 -0.68 2 0 2 C0 1.34 0 0.68 0 0 Z " fill="#2C66A5" transform="translate(5,9)"/>
</svg>
